<?xml version="1.0" encoding="UTF-8"?>
<svg version="1.1" xmlns="http://www.w3.org/2000/svg" width="664" height="789">
<path d="M0 0 C2.4375 1.375 2.4375 1.375 4 3 C4 3.66 4 4.32 4 5 C4.86818359 5.13341797 4.86818359 5.13341797 5.75390625 5.26953125 C8.59056699 6.19206266 9.8766263 7.54500754 11.9375 9.6875 C12.63359375 10.409375 13.3296875 11.13125 14.046875 11.875 C16.46781352 14.50898111 18.72801497 17.23677496 21 20 C22.64740076 21.6857124 24.31066078 23.3563186 26 25 C26.66 25.66 27.32 26.32 28 27 C29.2065625 27.433125 29.2065625 27.433125 30.4375 27.875 C33.36501059 29.16024855 34.4184221 30.25304892 36 33 C36 33.99 36 34.98 36 36 C37.65 36.33 39.3 36.66 41 37 C41.33 37.99 41.66 38.98 42 40 C43.2375 40.680625 43.2375 40.680625 44.5 41.375 C47 43 47 43 47.8125 45.6875 C47.874375 46.450625 47.93625 47.21375 48 48 C49.65 48.33 51.3 48.66 53 49 C53.33 49.99 53.66 50.98 54 52 C54.721875 52.061875 55.44375 52.12375 56.1875 52.1875 C59.88399074 53.2553751 61.53138868 55.10819816 64 58 C64 58.66 64 59.32 64 60 C64.94875 60.268125 65.8975 60.53625 66.875 60.8125 C70 62 70 62 72 65 C72 65.99 72 66.98 72 68 C73.051875 68.061875 74.10375 68.12375 75.1875 68.1875 C79.75325759 69.16053031 80.87536798 70.64102058 84 74 C85.22539499 74.76979942 86.47700919 75.499257 87.75 76.1875 C91 78 91 78 92 80 C92.66 80.33 93.32 80.66 94 81 C96 82 96 82 97 84 C98.64363134 84.72159424 100.31050386 85.39351421 102 86 C102 86.66 102 87.32 102 88 C102.70125 88.268125 103.4025 88.53625 104.125 88.8125 C109.49011203 91.02852454 114.20601575 93.73601073 119 97 C121.9400023 98.82000142 124.88445719 100.49992383 128 102 C128 102.66 128 103.32 128 104 C130.31 104.33 132.62 104.66 135 105 C135.33 105.99 135.66 106.98 136 108 C137.906359 108.69885767 137.906359 108.69885767 140.1875 109 C144.24467386 109.77948852 147.34506775 111.02024503 151 113 C153.20059702 114.01017882 155.4160099 114.98298162 157.6328125 115.95703125 C159.21480497 116.65404774 160.79295863 117.35984096 162.3671875 118.07421875 C166.53214928 119.96037147 170.64987426 121.57955078 175 123 C191.2601626 129.2601626 191.2601626 129.2601626 193 131 C194.41340094 131.15769349 195.83125522 131.27634556 197.25 131.375 C201.31568919 131.77710113 203.50735421 132.87033793 207 135 C210.30536133 135.83913198 213.63634884 136.44483428 217 137 C217 137.66 217 138.32 217 139 C218.08539062 139.12117187 219.17078125 139.24234375 220.2890625 139.3671875 C221.73441404 139.53612469 223.17972442 139.70541425 224.625 139.875 C225.33785156 139.95363281 226.05070312 140.03226563 226.78515625 140.11328125 C231.09741494 140.62758733 234.88876488 141.53822751 239 143 C240.78462483 143.40719609 242.57641478 143.78472712 244.375 144.125 C245.68597656 144.37636719 245.68597656 144.37636719 247.0234375 144.6328125 C247.67570312 144.75398437 248.32796875 144.87515625 249 145 C249 145.66 249 146.32 249 147 C254.28 147.66 259.56 148.32 265 149 C265.33 149.99 265.66 150.98 266 152 C267.98 152.33 269.96 152.66 272 153 C272.33 153.99 272.66 154.98 273 156 C273.65508545 156.31316162 274.3101709 156.62632324 274.98510742 156.94897461 C277 158 277 158 277.8215332 159.70922852 C279.15871778 166.47035333 279.26346118 173.05947477 279.1875 179.9375 C279.17674438 181.79592529 279.17674438 181.79592529 279.16577148 183.69189453 C279.08013074 193.92183971 278.84455043 204.14876821 278.5625 214.375 C278.54303314 215.10774139 278.52356628 215.84048279 278.50350952 216.59542847 C278.44597493 218.69660815 278.38233065 220.79750598 278.31640625 222.8984375 C278.27974854 224.10161621 278.24309082 225.30479492 278.20532227 226.54443359 C277.9954519 230.07654433 277.50087257 233.49841511 277 237 C276.76320918 239.85003305 276.61151727 242.70266154 276.46484375 245.55859375 C276.42186661 246.34774673 276.37888947 247.13689972 276.33460999 247.94996643 C276.19935327 250.44566555 276.06835756 252.94156675 275.9375 255.4375 C275.84598574 257.13998917 275.75419163 258.84246333 275.66210938 260.54492188 C275.43817049 264.69644796 275.21805012 268.84816062 275 273 C274.34 273 273.68 273 273 273 C273.01740234 273.95712891 273.01740234 273.95712891 273.03515625 274.93359375 C273.04869141 276.17302734 273.04869141 276.17302734 273.0625 277.4375 C273.07410156 278.26121094 273.08570313 279.08492188 273.09765625 279.93359375 C273 282 273 282 272 283 C271.86098948 285.06044486 271.76626436 287.12387379 271.6875 289.1875 C271.32863574 296.09800353 270.30051387 302.8207135 269.0625 309.625 C268.89258545 310.57270264 268.7226709 311.52040527 268.54760742 312.49682617 C267.25722096 319.37048554 267.25722096 319.37048554 265.9609375 322.54296875 C264.43160308 326.4533401 264.10768406 330.54134269 263.5625 334.6875 C260.9830011 353.0169989 260.9830011 353.0169989 257 357 C256.3162387 359.88717605 256.3162387 359.88717605 255.875 363.125 C255.70742188 364.22070312 255.53984375 365.31640625 255.3671875 366.4453125 C255.24601562 367.28835938 255.12484375 368.13140625 255 369 C254.01 369.33 253.02 369.66 252 370 C251.96261719 370.80824219 251.92523437 371.61648438 251.88671875 372.44921875 C251.78810547 374.05216797 251.78810547 374.05216797 251.6875 375.6875 C251.62949219 376.74324219 251.57148437 377.79898437 251.51171875 378.88671875 C250.95782136 382.25661356 249.82690363 384.15655157 248 387 C247.65458149 389.33157492 247.32205743 391.66508361 247 394 C246.06421005 396.35981813 245.06652192 398.69631264 244 401 C243.32723284 402.6642135 242.65793165 404.32986582 242 406 C241.34 406 240.68 406 240 406 C239.87625 407.299375 239.7525 408.59875 239.625 409.9375 C239.4140625 412.15234375 239.4140625 412.15234375 239 414 C238.34 414.33 237.68 414.66 237 415 C236.09274566 417.11327425 236.09274566 417.11327425 235.375 419.5625 C234.98441406 420.80193359 234.98441406 420.80193359 234.5859375 422.06640625 C234.39257812 422.70449219 234.19921875 423.34257812 234 424 C233.34 424 232.68 424 232 424 C231.67 427.3 231.34 430.6 231 434 C230.01 434 229.02 434 228 434 C227.87625 435.134375 227.7525 436.26875 227.625 437.4375 C227.315625 439.2009375 227.315625 439.2009375 227 441 C226.34 441.33 225.68 441.66 225 442 C224.5359375 443.7325 224.5359375 443.7325 224.0625 445.5 C223.711875 446.655 223.36125 447.81 223 449 C222.01 449.33 221.02 449.66 220 450 C219.9175 450.66 219.835 451.32 219.75 452 C218.34021385 457.63914462 215.55103674 462.43438133 212 467 C211.67 467.99 211.34 468.98 211 470 C210.34 470.33 209.68 470.66 209 471 C208.7525 471.86625 208.505 472.7325 208.25 473.625 C206.85586289 477.3891702 205.05143931 479.41177223 202.38671875 482.328125 C200.68507727 484.37968149 199.92181607 486.51818752 199 489 C198.01 489.66 197.02 490.32 196 491 C195.63837971 492.32594105 195.30271961 493.65938457 195 495 C194.34 495.33 193.68 495.66 193 496 C192.690625 496.825 192.38125 497.65 192.0625 498.5 C191.711875 499.325 191.36125 500.15 191 501 C190.01 501.33 189.02 501.66 188 502 C186.79117904 504.00016466 186.79117904 504.00016466 186 506 C185.34 506 184.68 506 184 506 C183.9175 506.7425 183.835 507.485 183.75 508.25 C182.84636905 511.56331349 181.66817101 512.88115832 179 515 C178.01 515 177.02 515 176 515 C176.144375 515.70125 176.28875 516.4025 176.4375 517.125 C175.83609171 521.07711164 173.93288758 521.94510316 170.875 524.3125 C168.29079327 526.63828606 166.83927914 529.30683074 165.23828125 532.36328125 C163.67432957 534.43046029 162.51309776 534.63493948 160 535 C159.896875 535.598125 159.79375 536.19625 159.6875 536.8125 C158.90088144 539.31537724 157.86454169 540.21314755 156 542 C155.67 542.99 155.34 543.98 155 545 C154.01 545.33 153.02 545.66 152 546 C151.67 546.99 151.34 547.98 151 549 C149.34151823 550.01351664 147.67334039 551.01120795 146 552 C145.13375 552.86625 144.2675 553.7325 143.375 554.625 C141 557 141 557 138 558 C136.93324142 559.87794875 136.93324142 559.87794875 136 562 C132.49531316 566.7882505 128.24634012 570.69835148 123.734375 574.51953125 C121.91019463 576.03731592 121.91019463 576.03731592 120 578 C118.68 578 117.36 578 116 578 C115.67 579.32 115.34 580.64 115 582 C114.01 582 113.02 582 112 582 C111.9690625 583.11375 111.9690625 583.11375 111.9375 584.25 C110.73774502 587.76928129 108.91909759 588.4687639 105.69921875 590.1015625 C103.74462657 591.13502503 102.52355825 592.41020009 101 594 C99.5459375 594.9590625 99.5459375 594.9590625 98.0625 595.9375 C94.99515723 597.85093467 94.99515723 597.85093467 92.8125 600.25 C91 602 91 602 88 602 C87.67 602.99 87.34 603.98 87 605 C86.34 605 85.68 605 85 605 C84.690625 605.9590625 84.690625 605.9590625 84.375 606.9375 C83 609 83 609 79.875 609.75 C78.92625 609.8325 77.9775 609.915 77 610 C77 610.99 77 611.98 77 613 C76.21625 613.268125 75.4325 613.53625 74.625 613.8125 C71.71885077 614.84814432 71.71885077 614.84814432 70 618 C66.72259306 620.30304271 63.96074927 621.43417868 60 622 C59.67 622.99 59.34 623.98 59 625 C56.54896865 626.7021051 54.24017816 627.91212994 51.4375 628.9375 C48.86957066 629.873182 48.86957066 629.873182 47 632.0625 C44.67097925 634.31873885 43.17138267 634.64762415 40 635 C39.938125 635.598125 39.87625 636.19625 39.8125 636.8125 C38.64290474 639.96141032 36.97545183 640.54533466 34 642 C32 642.66666667 30 643.33333333 28 644 C27.34 644.66 26.68 645.32 26 646 C25.01 646 24.02 646 23 646 C23 646.99 23 647.98 23 649 C21.865625 649.28875 20.73125 649.5775 19.5625 649.875 C18.386875 650.24625 17.21125 650.6175 16 651 C15.67 651.66 15.34 652.32 15 653 C0.33333333 661 0.33333333 661 -6 661 C-6 660.34 -6 659.68 -6 659 C-7.051875 658.8453125 -7.051875 658.8453125 -8.125 658.6875 C-11.41057396 657.90181927 -14.02288928 656.58356953 -17 655 C-17.721875 654.67 -18.44375 654.34 -19.1875 654 C-21 653 -21 653 -22.32421875 651.59375 C-24.87281377 649.16991138 -27.91947257 647.85618861 -31.0390625 646.28125 C-33 645 -33 645 -34 642 C-35.051875 641.87625 -35.051875 641.87625 -36.125 641.75 C-39.68527538 640.82123251 -42.07030552 639.19727086 -45 637 C-45.33 636.34 -45.66 635.68 -46 635 C-47.988203 633.97674596 -49.99067723 632.98113302 -52 632 C-54.14699456 630.68098266 -56.27242864 629.32623541 -58.375 627.9375 C-59.43460938 627.24527344 -60.49421875 626.55304687 -61.5859375 625.83984375 C-62.38257813 625.23269531 -63.17921875 624.62554688 -64 624 C-64 623.34 -64 622.68 -64 622 C-65.65 621.67 -67.3 621.34 -69 621 C-69 620.01 -69 619.02 -69 618 C-69.556875 617.7525 -70.11375 617.505 -70.6875 617.25 C-73.42410913 615.77075182 -75.67650869 614.06532561 -78 612 C-78 611.34 -78 610.68 -78 610 C-80.31 609.67 -82.62 609.34 -85 609 C-85.20625 608.2575 -85.4125 607.515 -85.625 606.75 C-87.39145479 603.21709041 -89.70929709 602.07457358 -93 600 C-93 599.34 -93 598.68 -93 598 C-93.639375 597.896875 -94.27875 597.79375 -94.9375 597.6875 C-95.618125 597.460625 -96.29875 597.23375 -97 597 C-97.33 596.01 -97.66 595.02 -98 594 C-99.65 593.67 -101.3 593.34 -103 593 C-103.33 591.68 -103.66 590.36 -104 589 C-104.82757813 588.85884766 -104.82757813 588.85884766 -105.671875 588.71484375 C-108.62405565 587.8083856 -110.72721344 586.33656482 -113.25 584.5625 C-114.58804688 583.63630859 -114.58804688 583.63630859 -115.953125 582.69140625 C-116.62859375 582.13324219 -117.3040625 581.57507813 -118 581 C-118 580.34 -118 579.68 -118 579 C-119.27875 578.87625 -120.5575 578.7525 -121.875 578.625 C-125.75 578.25 -125.75 578.25 -128 576 C-129.44024839 575.46894316 -130.90230007 574.99550314 -132.375 574.5625 C-135.84847132 573.46357982 -138.11823464 572.23104415 -141 570 C-142.85148641 569.3056926 -144.70429642 568.61450941 -146.56640625 567.94921875 C-149.59585977 566.767586 -152.50783177 565.41083904 -155.4375 564 C-156.46746094 563.505 -157.49742187 563.01 -158.55859375 562.5 C-161 561 -161 561 -162 558 C-163.82559267 557.37217059 -163.82559267 557.37217059 -166 557 C-167.5766926 556.41172142 -169.13951532 555.78513231 -170.6875 555.125 C-171.86892578 554.63386719 -171.86892578 554.63386719 -173.07421875 554.1328125 C-175 553 -175 553 -176 550 C-176.78375 549.896875 -177.5675 549.79375 -178.375 549.6875 C-181 549 -181 549 -183 546 C-183.78375 545.690625 -184.5675 545.38125 -185.375 545.0625 C-188.36902869 543.85063124 -189.92924594 542.45422704 -192 540 C-192 539.34 -192 538.68 -192 538 C-192.7425 537.95875 -193.485 537.9175 -194.25 537.875 C-198.09214133 536.65250049 -198.89038575 534.33455156 -201 531 C-203.09989652 529.82425289 -203.09989652 529.82425289 -205 529 C-205.495 527.515 -205.495 527.515 -206 526 C-206.99 525.67 -207.98 525.34 -209 525 C-209 523.68 -209 522.36 -209 521 C-210.32 521 -211.64 521 -213 521 C-213.2475 520.05125 -213.495 519.1025 -213.75 518.125 C-215.19050927 514.52372681 -215.68196667 514.50819697 -219 513 C-221.65725947 509.45698737 -222.49197232 506.36903809 -223 502 C-223.66 502 -224.32 502 -225 502 C-225.33 501.01 -225.66 500.02 -226 499 C-226.99 498.34 -227.98 497.68 -229 497 C-231.78940207 492.63130411 -233.60773244 487.65535043 -235.34765625 482.79296875 C-235.86131019 481.38118937 -236.44900404 479.99634391 -237.0625 478.625 C-238.22637057 475.36616241 -238.77530166 472.10448899 -239.33984375 468.6953125 C-239.94279902 465.8510359 -239.94279902 465.8510359 -241.48828125 462.82421875 C-243.51416727 458.2550153 -243.85334734 453.62770727 -244.25 448.6875 C-244.37338745 447.24250122 -244.37338745 447.24250122 -244.49926758 445.76831055 C-245.17888985 436.7519884 -244.80758359 427.98991408 -244 419 C-243.91363281 417.84886719 -243.82726562 416.69773437 -243.73828125 415.51171875 C-243.17103236 408.34206471 -243.17103236 408.34206471 -242 406 C-241.73044167 403.66810655 -241.55492623 401.33678493 -241.37890625 398.99609375 C-241.25386719 398.33738281 -241.12882812 397.67867188 -241 397 C-240.34 396.67 -239.68 396.34 -239 396 C-238.49132861 393.7878397 -238.49132861 393.7878397 -238.1875 391.125 C-236.70426899 382.35111811 -233.86510435 374.7531276 -226.84375 369.0234375 C-222.08615096 366.38256685 -216.66851421 366.84315363 -211.375 366.875 C-210.54685791 366.87910889 -209.71871582 366.88321777 -208.86547852 366.88745117 C-183.19399766 367.11266084 -183.19399766 367.11266084 -174.31640625 370.30859375 C-170.59718072 371.41871672 -166.83381423 371.50863603 -162.9765625 371.7578125 C-151.29142857 372.70857143 -151.29142857 372.70857143 -148 376 C-145.95929225 376.730659 -143.89172299 377.38747861 -141.8125 378 C-140.64074219 378.34933594 -139.46898437 378.69867188 -138.26171875 379.05859375 C-135.88660499 379.74410563 -133.50999383 380.41303944 -131.125 381.0625 C-127.61019139 382.11694258 -124.35157511 383.51041106 -121 385 C-118.07762934 386.24200753 -115.49217442 387.11382297 -112.375 387.8125 C-109 389 -109 389 -106.875 391.0625 C-105.52672734 395.58884394 -106.99033424 398.84380953 -109 403 C-110.17334452 404.76969784 -111.43373514 406.43262047 -112.73046875 408.11328125 C-118.61376762 416.85676849 -119.21937528 426.4996559 -119.3125 436.6875 C-119.34150391 437.72583984 -119.37050781 438.76417969 -119.40039062 439.83398438 C-119.46475398 447.73087326 -118.25580427 454.66879219 -113.4152832 461.1081543 C-112 463 -112 463 -111.1875 465.75 C-109.82391886 469.48190627 -107.88995754 472.0049689 -105.4609375 475.109375 C-103.03150649 478.25334454 -101.25490763 481.2352771 -100 485 C-97.98491642 485.73323796 -97.98491642 485.73323796 -96 486 C-96 486.66 -96 487.32 -96 488 C-94.68 488.66 -93.36 489.32 -92 490 C-92 490.66 -92 491.32 -92 492 C-91.01 492.33 -90.02 492.66 -89 493 C-88.54625 493.639375 -88.0925 494.27875 -87.625 494.9375 C-85.6455383 497.44989369 -83.95325151 497.89253068 -81 499 C-79.1875 500.5 -79.1875 500.5 -78 502 C-78 502.66 -78 503.32 -78 504 C-76.02 504.66 -74.04 505.32 -72 506 C-72 506.66 -72 507.32 -72 508 C-69.69 508.33 -67.38 508.66 -65 509 C-65 509.99 -65 510.98 -65 512 C-63.88625 511.9071875 -63.88625 511.9071875 -62.75 511.8125 C-59.42236083 512.03938449 -58.62806293 513.02661467 -56 515 C-54.0659321 515.90777282 -52.1046784 516.75904274 -50.125 517.5625 C-48.61292969 518.18318359 -48.61292969 518.18318359 -47.0703125 518.81640625 C-44.07201038 519.97224027 -41.04915685 520.98767992 -38 522 C-37.19949219 522.34933594 -36.39898437 522.69867187 -35.57421875 523.05859375 C-32.33915206 524.2416758 -29.22723955 524.63430821 -25.8125 525.0625 C-19.19915849 525.90042076 -19.19915849 525.90042076 -17 527 C-14.14305744 527.18422455 -11.29730014 527.3262649 -8.4375 527.4375 C-3.3572687 527.66086755 1.49198504 527.90593798 6.4375 529.1875 C7.613125 529.455625 8.78875 529.72375 10 530 C10.99 529.34 11.98 528.68 13 528 C14.97265625 528.05859375 14.97265625 528.05859375 17.0625 528.4375 C20.77600533 529.34916816 20.77600533 529.34916816 23 528 C24.88792502 527.86988031 26.77997135 527.79741007 28.671875 527.75390625 C29.81140625 527.72103516 30.9509375 527.68816406 32.125 527.65429688 C34.52595539 527.59349682 36.92700115 527.53615882 39.328125 527.48242188 C41.04515625 527.43118164 41.04515625 527.43118164 42.796875 527.37890625 C44.36453613 527.34132202 44.36453613 527.34132202 45.96386719 527.30297852 C49.22431869 526.97761503 51.92194981 526.0957667 55 525 C57.28664779 524.68963133 59.57914306 524.42015365 61.875 524.1875 C67.32146773 523.47236506 70.80480383 522.37822028 75.203125 519.1640625 C77.18394562 517.88083523 78.82929693 517.3841973 81.125 516.875 C84.90890516 516.0205698 87.60800306 514.83733168 91 513 C92.43600207 512.28863483 93.87356372 511.58041104 95.3125 510.875 C97.84212265 509.69737266 97.84212265 509.69737266 100 508 C101.99958364 507.95919217 104.00045254 507.95745644 106 508 C106.33 507.01 106.66 506.02 107 505 C109.68434019 501.93218264 112.51249898 500.05673137 116 498 C116.680625 497.2884375 116.680625 497.2884375 117.375 496.5625 C119.03358284 494.96770881 120.54818643 494.09229787 122.5625 493 C126.15173636 491.2493071 126.15173636 491.2493071 128 488 C129.76708492 487.00400668 131.53507696 486.00934997 133.31640625 485.0390625 C136.61719993 483.00191373 137.80323604 480.59029187 139 477 C139.94875 476.38125 140.8975 475.7625 141.875 475.125 C145.08810372 472.94008947 146.09196716 471.27091343 148 468 C148.99 468 149.98 468 151 468 C151.33 467.01 151.66 466.02 152 465 C152.66 465 153.32 465 154 465 C154.103125 464.38125 154.20625 463.7625 154.3125 463.125 C155 461 155 461 158 459 C159.01765927 457.00892752 160.01577854 455.00781177 161 453 C163.0625 450.125 163.0625 450.125 165 448 C165.66 448 166.32 448 167 448 C167.33 446.68 167.66 445.36 168 444 C168.66 444 169.32 444 170 444 C170.15855469 442.89591797 170.15855469 442.89591797 170.3203125 441.76953125 C171.05132355 438.79087127 172.07069146 437.14261635 173.875 434.6875 C176.74024176 430.58249017 178.44629081 426.74744474 180 422 C180.66 422 181.32 422 182 422 C182.03738281 421.38511719 182.07476562 420.77023437 182.11328125 420.13671875 C182.21189453 418.92435547 182.21189453 418.92435547 182.3125 417.6875 C182.37050781 416.88699219 182.42851562 416.08648437 182.48828125 415.26171875 C183.10121447 412.55264751 184.02525657 411.88867713 186 410 C186.89457971 408.23811435 187.72342444 406.4419877 188.5 404.625 C189.71482506 401.79819553 190.89708508 399.16434882 192.53125 396.5546875 C194.22859553 393.6023897 195.0816253 390.77553643 196 387.5 C196.93312152 384.17186657 197.76435037 381.38764364 199.5625 378.4296875 C201.15479591 375.73836127 201.57619768 373.70639605 202 370.625 C202.75021707 365.9408716 203.99219771 362.27749183 206 358 C206.37308631 356.67723944 206.73046415 355.34767923 207 354 C207.66 354 208.32 354 209 354 C209.13277344 353.07316406 209.26554687 352.14632813 209.40234375 351.19140625 C209.57894531 349.99386719 209.75554687 348.79632813 209.9375 347.5625 C210.19853516 345.77005859 210.19853516 345.77005859 210.46484375 343.94140625 C211 341 211 341 212 340 C212.50221037 336.51192071 212.90186871 333.0164865 213.3046875 329.515625 C214 326 214 326 215.4453125 323.7421875 C217.90008403 319.41241459 218.26975853 314.75423645 219 309.875 C219.16806152 308.81200684 219.33612305 307.74901367 219.50927734 306.65380859 C220.01607993 303.43732077 220.50902675 300.21893713 221 297 C221.41410462 294.33829413 221.831066 291.67706293 222.25 289.01611328 C222.49032068 287.483756 222.72758157 285.95091383 222.9609375 284.41748047 C223.53932094 280.66573429 224.22512127 276.97902038 225.05078125 273.2734375 C226.28690136 267.21084086 226.41421676 261.17002965 226.5625 255 C226.62223554 252.77072065 226.68583376 250.54154035 226.75390625 248.3125 C226.78979858 246.85263672 226.78979858 246.85263672 226.82641602 245.36328125 C227 243 227 243 228 241 C228.15441209 238.89625004 228.24992639 236.78804881 228.31640625 234.6796875 C228.35830078 233.42285156 228.40019531 232.16601562 228.44335938 230.87109375 C228.48267578 229.55238281 228.52199219 228.23367188 228.5625 226.875 C228.60569512 225.53514249 228.64930973 224.19529844 228.69335938 222.85546875 C228.79970981 219.57042185 228.90173808 216.28529719 229 213 C228.34 213 227.68 213 227 213 C227 209 227 205 227 201 C224.91874868 200.30624956 222.83710535 199.61366077 220.75390625 198.92578125 C218.88036038 198.29595094 217.01324969 197.64671903 215.15234375 196.98046875 C208.95256588 194.79951922 203.01782758 193.34096561 196.49609375 192.4921875 C194 192 194 192 191 190 C185.40813106 188.05500211 179.750657 187.32566696 173.890625 186.5625 C171 186 171 186 168 184 C165.20810135 183.43237 162.41541102 183.05078943 159.59375 182.66015625 C156.67629745 181.91761185 156.0561303 181.07705783 154 179 C151.15776233 177.94614289 151.15776233 177.94614289 147.9375 177.125 C142.74361387 175.61635458 138.1795425 173.75676849 133.4140625 171.2265625 C130.09113889 169.5382162 126.64702192 168.24450533 123.171875 166.90625 C121 166 121 166 118.4375 164.375 C115.97020836 162.98319446 114.25832466 162.61416102 111.5 162.125 C106.91291106 161.22262185 105.30840658 159.30840658 102 156 C99.27654407 154.86806363 96.51377071 153.96312264 93.71484375 153.03515625 C90.54445224 151.82630193 88.20106556 150.22904643 85.546875 148.15625 C83.21575251 146.41379481 80.60813767 145.27632269 78 144 C77.071875 143.34 76.14375 142.68 75.1875 142 C71.86306971 139.91408296 68.90896585 138.90905756 65.1484375 137.90625 C63 137 63 137 61.078125 135.0703125 C58.67393804 132.67516384 56.49393174 131.67805774 53.375 130.375 C48.19444444 128.19444444 48.19444444 128.19444444 46 126 C44.9790625 125.7525 44.9790625 125.7525 43.9375 125.5 C43.298125 125.335 42.65875 125.17 42 125 C41.67 124.34 41.34 123.68 41 123 C38.66752239 122.66073053 36.33414529 122.32759934 34 122 C33.34 121.34 32.68 120.68 32 120 C26.85452674 118.58914443 21.48003203 118.64224261 16.1796875 118.37890625 C13 118 13 118 10 116 C6.65226659 115.68948049 6.65226659 115.68948049 2.8125 115.734375 C2.11358643 115.73246155 1.41467285 115.7305481 0.69458008 115.72857666 C-0.78141643 115.72721717 -2.25742498 115.73089718 -3.73339844 115.73925781 C-5.99180984 115.74996118 -8.24942582 115.7393551 -10.5078125 115.7265625 C-11.94271009 115.72788414 -13.37760718 115.73044662 -14.8125 115.734375 C-16.77123047 115.73775879 -16.77123047 115.73775879 -18.76953125 115.74121094 C-22.14958568 115.74837197 -22.14958568 115.74837197 -25 118 C-27.26345716 118.24743383 -29.53762177 118.40309358 -31.8125 118.5 C-39.45176799 118.60806499 -39.45176799 118.60806499 -46 122 C-47.33237982 122.08029968 -48.66608886 122.13886782 -50 122.1875 C-55.01996184 122.65837082 -57.9349644 124.70704541 -61.921875 127.6484375 C-64.53289842 129.34658431 -66.95611336 129.55455317 -70 130 C-71.12516085 131.83284443 -71.12516085 131.83284443 -72 134 C-76.33333333 138 -76.33333333 138 -80 138 C-80.268125 138.556875 -80.53625 139.11375 -80.8125 139.6875 C-83.13387814 144.20807849 -84.43730647 146.71865323 -89 149 C-90.6446674 151.46326712 -90.6446674 151.46326712 -92 154 C-92.66 154.66 -93.32 155.32 -94 156 C-94.90461282 158.16712542 -95.7520077 160.35844483 -96.5625 162.5625 C-98.90277778 168.90277778 -98.90277778 168.90277778 -100 170 C-100.23192865 171.51469448 -100.41215238 173.03754562 -100.5625 174.5625 C-100.64628906 175.38878906 -100.73007813 176.21507812 -100.81640625 177.06640625 C-100.87699219 177.70449219 -100.93757812 178.34257812 -101 179 C-101.66 179 -102.32 179 -103 179 C-102.88513575 181.37587624 -102.75841844 183.75015171 -102.625 186.125 C-102.57859375 187.12273437 -102.57859375 187.12273437 -102.53125 188.140625 C-101.98705475 197.39194428 -98.19647918 205.43778418 -93.18359375 213.10546875 C-92 215 -92 215 -90.98828125 217.1875 C-90.1327513 219.23318505 -90.1327513 219.23318505 -87.75 219.8125 C-84.27182207 221.31444047 -82.7327308 223.40581368 -80.4296875 226.34375 C-78.91075059 228.2526135 -78.91075059 228.2526135 -76 230 C-76 230.66 -76 231.32 -76 232 C-73.03 232.99 -73.03 232.99 -70 234 C-70 234.66 -70 235.32 -70 236 C-68.35 236.33 -66.7 236.66 -65 237 C-64.67 237.99 -64.34 238.98 -64 240 C-62.26960809 240.61097479 -62.26960809 240.61097479 -60 241 C-57.67979518 241.76879254 -55.36795531 242.56304669 -53.0625 243.375 C-51.25458984 244.00535156 -51.25458984 244.00535156 -49.41015625 244.6484375 C-46.33970263 245.86536413 -43.69124615 247.09008338 -41 249 C-41 249.66 -41 250.32 -41 251 C-39.93072266 251.27263672 -39.93072266 251.27263672 -38.83984375 251.55078125 C-33.34148999 252.9938216 -28.09412458 254.45293771 -23 257 C-22.67 257.66 -22.34 258.32 -22 259 C-20.01962479 259.23104377 -18.03866961 259.45855783 -16.0546875 259.65625 C-13.24973375 260.12551983 -11.35751134 261.4490057 -9 263 C-7.01548229 263.71143088 -5.01797888 264.38991336 -3 265 C-3 265.66 -3 266.32 -3 267 C-2.360625 267.0825 -1.72125 267.165 -1.0625 267.25 C2.47191079 268.11556999 5.54125856 269.49734325 8.83984375 271.01171875 C11.19646668 272.0898844 13.58341215 273.06454664 16 274 C16 274.66 16 275.32 16 276 C16.65226562 276.02578125 17.30453125 276.0515625 17.9765625 276.078125 C23.83037019 276.45801812 27.52356837 277.11257253 32 281 C32 281.66 32 282.32 32 283 C32.8353125 283.12955078 32.8353125 283.12955078 33.6875 283.26171875 C38.899707 284.22139875 42.59568294 285.74826961 46.96875 288.70703125 C49.76932259 290.48970342 52.72447986 291.73013423 55.76953125 293.03515625 C61.49530561 295.51197983 66.9989224 298.2491918 72 302 C72 302.66 72 303.32 72 304 C73.65 304.33 75.3 304.66 77 305 C77 305.66 77 306.32 77 307 C77.99 307 78.98 307 80 307 C80 307.66 80 308.32 80 309 C81.11375 309.3403125 81.11375 309.3403125 82.25 309.6875 C85 311 85 311 86.8125 313.3125 C88.89591734 315.87212702 90.27570325 316.88792962 93.0625 318.5 C96.4894243 320.52297021 98.37923849 322.251989 100 326 C100 326.66 100 327.32 100 328 C100.74894531 328.24105469 101.49789063 328.48210937 102.26953125 328.73046875 C105.38713264 330.17999729 106.64315385 331.5790484 108.6875 334.3125 C109.26886719 335.07175781 109.85023438 335.83101563 110.44921875 336.61328125 C112 339 112 339 113.01953125 341.73046875 C113.34308594 342.47941406 113.66664063 343.22835938 114 344 C114.99 344.33 115.98 344.66 117 345 C117 345.66 117 346.32 117 347 C117.66 347 118.32 347 119 347 C119.4125 347.99 119.825 348.98 120.25 350 C123.27964221 357.54444102 123.27964221 357.54444102 128 364 C128.69100553 365.99172182 129.35902703 367.99161804 130 370 C130.33 370.33 130.66 370.66 131 371 C131.32960305 372.42927867 131.61261246 373.86936852 131.875 375.3125 C132.56479895 379.04075589 133.4713 382.60451508 134.54296875 386.23828125 C136.41165446 393.6621327 136.48837526 400.91941977 136.44604492 408.52929688 C136.43743521 410.8927864 136.46656605 413.25392914 136.49804688 415.6171875 C136.49965706 417.13802012 136.49908486 418.65885697 136.49609375 420.1796875 C136.51294472 421.22514236 136.51294472 421.22514236 136.53013611 422.29171753 C136.45879401 427.32273333 135.03650417 430.06351033 132 434 C130.70691117 436.29678951 129.47443861 438.6173772 128.24609375 440.94921875 C127 443 127 443 125.41015625 444.58203125 C123.73375132 446.05751087 123.73375132 446.05751087 123 449 C120.59289977 451.67455581 118.43014892 453.74991342 115.3125 455.5625 C112.88644136 456.7908468 112.88644136 456.7908468 112 459 C110.17970122 462.64059756 106.41603683 463.80030232 102.875 465.5 C100.31522109 466.83553682 98.94606399 467.9612663 97 470 C96.01 470.33 95.02 470.66 94 471 C93.34 471.99 92.68 472.98 92 474 C91.113125 474.28875 90.22625 474.5775 89.3125 474.875 C86.37327721 475.87322661 84.94064281 476.6681873 82.5625 478.5 C80.1164193 480.35771385 78.10328749 481.42617907 75.125 482.1875 C73.578125 482.5896875 73.578125 482.5896875 72 483 C71.67 483.66 71.34 484.32 71 485 C68.71484375 485.6328125 68.71484375 485.6328125 65.9375 486.125 C65.01839844 486.29257812 64.09929687 486.46015625 63.15234375 486.6328125 C62.44207031 486.75398438 61.73179687 486.87515625 61 487 C61 487.66 61 488.32 61 489 C59.64455078 489.29003906 59.64455078 489.29003906 58.26171875 489.5859375 C57.08222656 489.84632813 55.90273438 490.10671875 54.6875 490.375 C52.92986328 490.75785156 52.92986328 490.75785156 51.13671875 491.1484375 C47.87079555 491.85695531 47.87079555 491.85695531 45 494 C42.11230998 494.41499737 39.27643945 494.74278435 36.375 495 C29.12850885 495.69203188 29.12850885 495.69203188 22 497.125 C17.41973686 498.26779833 12.69177848 498.60310196 8 498 C7.34 497.34 6.68 496.68 6 496 C3.72720185 495.65929591 1.48577736 495.55858171 -0.80859375 495.44140625 C-3.41856841 494.91568943 -4.32663364 494.01772471 -6 492 C-3.11738545 485.75433514 0.19517898 478.86988068 6 475 C14.20735729 461.80139998 15.82181137 447.84693946 12.69140625 432.7421875 C10.14370292 422.43384735 10.14370292 422.43384735 3 415 C2.64386903 413.33805547 2.30791692 411.671549 2 410 C0.26857146 408.84077872 0.26857146 408.84077872 -2 408 C-4.0065438 406.67653494 -6.00628175 405.34270821 -8 404 C-8.886875 403.484375 -9.77375 402.96875 -10.6875 402.4375 C-12.82643089 401.10789431 -14.23606513 399.76393487 -16 398 C-18.70731868 396.17073062 -21.07784854 394.97405049 -24.1875 393.9375 C-27 393 -27 393 -29 391 C-30.010625 390.690625 -31.02125 390.38125 -32.0625 390.0625 C-33.031875 389.711875 -34.00125 389.36125 -35 389 C-35.33 388.01 -35.66 387.02 -36 386 C-36.94875 385.9175 -37.8975 385.835 -38.875 385.75 C-44.15133665 384.99623762 -50.70101939 383.31661984 -54.52734375 379.4609375 C-56.34993965 377.65284501 -57.86029505 377.21152061 -60.3125 376.5 C-69.27925532 373.72074468 -69.27925532 373.72074468 -72 371 C-73.258125 370.87625 -74.51625 370.7525 -75.8125 370.625 C-79.46512589 370.21699392 -81.12483088 369.31868477 -84 367 C-85.155 366.67 -86.31 366.34 -87.5 366 C-91 365 -91 365 -92.76953125 363.59765625 C-95.72346482 361.4817914 -98.74453683 360.57564016 -102.1875 359.4375 C-104.47742604 358.68048017 -106.75453157 357.88017715 -109 357 C-109.33 356.34 -109.66 355.68 -110 355 C-111.155 354.67 -112.31 354.34 -113.5 354 C-114.655 353.67 -115.81 353.34 -117 353 C-117.33 352.34 -117.66 351.68 -118 351 C-119.299375 350.87625 -120.59875 350.7525 -121.9375 350.625 C-124.1484375 350.4140625 -124.1484375 350.4140625 -126 350 C-126.69937532 348.68352881 -127.36729133 347.34977849 -128 346 C-130.32156597 345.59270772 -132.6568787 345.25561323 -135 345 C-135.33 344.34 -135.66 343.68 -136 343 C-137.88263881 342.09656316 -137.88263881 342.09656316 -140.0625 341.375 C-141.16271484 340.98441406 -141.16271484 340.98441406 -142.28515625 340.5859375 C-142.85105469 340.39257812 -143.41695313 340.19921875 -144 340 C-144 339.34 -144 338.68 -144 338 C-145.093125 337.896875 -146.18625 337.79375 -147.3125 337.6875 C-151.02351413 336.99561601 -151.72623352 336.72851977 -154 334 C-154.99 333.67 -155.98 333.34 -157 333 C-157.33 332.34 -157.66 331.68 -158 331 C-158.721875 330.71125 -159.44375 330.4225 -160.1875 330.125 C-164.81689885 328.27324046 -168.5699098 325.58600339 -172 322 C-173.0828125 321.2265625 -173.0828125 321.2265625 -174.1875 320.4375 C-174.785625 319.963125 -175.38375 319.48875 -176 319 C-176 318.34 -176 317.68 -176 317 C-176.5775 316.938125 -177.155 316.87625 -177.75 316.8125 C-180.87975028 315.6823124 -181.96513901 313.58982308 -184 311 C-185.65661761 309.98343919 -187.32111559 308.97934924 -189 308 C-189 307.34 -189 306.68 -189 306 C-189.598125 305.938125 -190.19625 305.87625 -190.8125 305.8125 C-193.89578108 304.66728131 -194.39440311 302.82585053 -196 300 C-196.86625 299.175 -197.7325 298.35 -198.625 297.5 C-201.22585643 294.76225639 -201.32649291 293.55996604 -202 290 C-202.58136719 289.73316406 -203.16273438 289.46632813 -203.76171875 289.19140625 C-206.81727941 287.56497344 -208.22967772 285.41603782 -210.25 282.625 C-211.30960938 281.19027344 -211.30960938 281.19027344 -212.390625 279.7265625 C-214 277 -214 277 -214 273 C-214.99 273 -215.98 273 -217 273 C-224.42734728 254.50285294 -224.42734728 254.50285294 -226.39453125 246.06640625 C-226.9698995 243.72192641 -226.9698995 243.72192641 -229 241 C-232.02207323 229.38161157 -232.28432702 216.80045728 -232.3125 204.875 C-232.32047607 203.22467773 -232.32047607 203.22467773 -232.32861328 201.54101562 C-232.2730412 195.07905456 -231.6336955 188.96522887 -230.46557617 182.61132812 C-229.78272969 178.78137218 -229.56564462 174.95963981 -229.34375 171.08203125 C-229.2303125 170.39496094 -229.116875 169.70789063 -229 169 C-228.34 168.67 -227.68 168.34 -227 168 C-226.15447766 165.66286213 -226.15447766 165.66286213 -225.5 162.875 C-225.23832031 161.87210938 -224.97664063 160.86921875 -224.70703125 159.8359375 C-224.18164208 157.7285754 -223.67862378 155.61561013 -223.1875 153.5 C-221.75691733 149.28354582 -219.70403133 145.65063213 -217.51953125 141.78125 C-216.14544981 139.26622177 -214.94754476 136.75444732 -213.8125 134.125 C-210.11142857 125.55571429 -210.11142857 125.55571429 -207 124 C-206.690625 123.21625 -206.38125 122.4325 -206.0625 121.625 C-204.98727512 118.96856206 -204.02028972 117.93611098 -202 116 C-200.82425289 113.90010348 -200.82425289 113.90010348 -200 112 C-199.34 112 -198.68 112 -198 112 C-197.34 110.68 -196.68 109.36 -196 108 C-195.34 108 -194.68 108 -194 108 C-193.34 106.68 -192.68 105.36 -192 104 C-191.34 104 -190.68 104 -190 104 C-189.9071875 102.9171875 -189.9071875 102.9171875 -189.8125 101.8125 C-188.73561783 98.08483095 -186.85225789 96.59296172 -184 94 C-183.113125 93.071875 -182.22625 92.14375 -181.3125 91.1875 C-179 89 -179 89 -177 89 C-177 88.34 -177 87.68 -177 87 C-175.948125 86.46375 -174.89625 85.9275 -173.8125 85.375 C-170.94108728 83.75552323 -169.72649551 82.66337909 -167.5625 80 C-164.84416616 76.81756038 -162.84326096 75.6838468 -159.125 74.0078125 C-156.16931689 72.60603632 -153.49423147 70.8410482 -150.76171875 69.05078125 C-149 68 -149 68 -146 67 C-145.67 66.34 -145.34 65.68 -145 65 C-141.10462129 62.23553769 -136.79647178 60.69506349 -132.375 58.984375 C-129.74653403 57.89494503 -127.40942593 56.50589121 -125 55 C-124.34 55 -123.68 55 -123 55 C-122.67 54.01 -122.34 53.02 -122 52 C-119.96875 51.0859375 -119.96875 51.0859375 -117.5 50.375 C-114.48411921 49.65305469 -114.48411921 49.65305469 -112 48 C-110.00041636 47.95919217 -107.99954746 47.95745644 -106 48 C-105.67 47.01 -105.34 46.02 -105 45 C-102.68529088 44.27129528 -100.3494053 43.60760482 -98 43 C-97.01 42.34 -96.02 41.68 -95 41 C-93.63868467 40.50249119 -92.26146095 40.0473985 -90.875 39.625 C-82.26327619 36.9994438 -82.26327619 36.9994438 -75 32 C-73.33333333 31.33333333 -71.66666667 30.66666667 -70 30 C-69.34 29.34 -68.68 28.68 -68 28 C-65.66666667 27.66666667 -63.33333333 27.33333333 -61 27 C-60.34 26.34 -59.68 25.68 -59 25 C-57.01178687 24.60235737 -55.01055661 24.26224651 -53 24 C-52.67 23.01 -52.34 22.02 -52 21 C-50.28515625 20.26171875 -50.28515625 20.26171875 -48.0625 19.6875 C-43.24911816 18.25732584 -39.43230499 15.96727431 -35.26171875 13.20703125 C-33 12 -33 12 -29 12 C-28.67 10.68 -28.34 9.36 -28 8 C-26.329375 7.814375 -26.329375 7.814375 -24.625 7.625 C-20.96896323 7.3534187 -20.96896323 7.3534187 -19 5 C-17.00458132 4.31974363 -15.00382009 3.65509503 -13 3 C-12.030625 2.46375 -11.06125 1.9275 -10.0625 1.375 C-6.40030361 -0.26925144 -3.97596798 -0.44177422 0 0 Z " fill="#035170" transform="translate(327,66)"/>
<path d="M0 0 C1.74989861 -0.01304725 3.49982557 -0.02232548 5.24975586 -0.0300293 C6.22424179 -0.03560349 7.19872772 -0.04117767 8.20274353 -0.04692078 C11.80429319 0.0134911 15.02653453 0.4849646 18.5625 1.1875 C19.73941406 1.40792969 20.91632813 1.62835938 22.12890625 1.85546875 C31.6509983 4.3038999 40.19900003 10.3914982 48.5 15.4375 C50.09521484 16.40139648 50.09521484 16.40139648 51.72265625 17.38476562 C55.75226324 19.81983488 59.78141563 22.25545717 63.79907227 24.71020508 C68.09534872 27.32091108 72.33102155 29.77737979 76.9375 31.8125 C78.02933594 32.30363281 79.12117188 32.79476562 80.24609375 33.30078125 C80.83890137 33.56713379 81.43170898 33.83348633 82.04248047 34.10791016 C85.88360021 35.85840299 89.68865567 37.68584529 93.5 39.5 C113.69878035 49.2892149 113.69878035 49.2892149 134.66625977 57.21142578 C137.01017824 58.00343924 139.27870131 58.9023272 141.56640625 59.84375 C147.08720865 62.06636463 152.67119088 64.04389747 158.3125 65.9375 C159.34342773 66.28449951 160.37435547 66.63149902 161.43652344 66.98901367 C169.33002246 69.58536877 177.2660037 71.66901123 185.3996582 73.36499023 C193.16329235 75.036387 193.16329235 75.036387 196 78 C203.53033078 100.59099233 194.18982479 132.63559843 190.125 155.5 C189.8779834 156.90691605 189.8779834 156.90691605 189.62597656 158.34225464 C187.47385603 170.5103921 184.67873689 182.20823459 181 194 C180.5212709 195.70817216 180.05046085 197.41862205 179.59375 199.1328125 C179.31337891 200.15375 179.31337891 200.15375 179.02734375 201.1953125 C178.66583791 202.5181561 178.31478999 203.84388924 177.97265625 205.171875 C176.54202564 210.28267952 174.26306371 213.81240157 171 218 C168.33975925 216.99616874 167.18550062 216.30705107 165.69482422 213.83959961 C165.3185791 212.95280518 164.94233398 212.06601074 164.5546875 211.15234375 C164.12293213 210.16282715 163.69117676 209.17331055 163.24633789 208.15380859 C162.79379639 207.09242676 162.34125488 206.03104492 161.875 204.9375 C154.83860917 189.08943351 147.17639832 175.37984177 135.43408203 162.56933594 C134.03997048 161.04374025 132.67095838 159.49926756 131.30859375 157.9453125 C127.62352803 153.39511282 127.62352803 153.39511282 123 150 C123 149.34 123 148.68 123 148 C122.44183594 147.75378906 121.88367188 147.50757813 121.30859375 147.25390625 C118.57333484 145.76825801 116.4315749 143.95744807 114.0625 141.9375 C103.49273614 133.19684983 92.1458725 126.07772873 80.26318359 119.29248047 C78.72732291 118.41536651 77.19386483 117.53403468 75.66259766 116.64892578 C64.02311781 109.91675523 64.02311781 109.91675523 51.578125 104.90234375 C48.73597609 103.90759163 46.13783247 102.64461588 43.4375 101.3125 C35.65931048 97.6251315 27.53233334 94.97372604 19.37670898 92.24731445 C2.60743551 86.60743551 2.60743551 86.60743551 0 84 C-0.09509559 81.38311559 -0.12556 78.792711 -0.11352539 76.17553711 C-0.11367142 75.35609116 -0.11381744 74.5366452 -0.1139679 73.69236755 C-0.11326852 70.97066647 -0.10547501 68.24903295 -0.09765625 65.52734375 C-0.09579216 63.64547259 -0.09436821 61.76360094 -0.09336853 59.88172913 C-0.08954267 54.91851471 -0.07971181 49.95532936 -0.06866455 44.99212646 C-0.0584519 39.93160394 -0.05387122 34.87107673 -0.04882812 29.81054688 C-0.0380896 19.87368512 -0.02101236 9.93684497 0 0 Z " fill="#044F6B" transform="translate(323,215)"/>
<path d="M0 0 C3.47909371 -0.05883728 6.95805674 -0.09387399 10.4375 -0.125 C11.41138672 -0.14175781 12.38527344 -0.15851562 13.38867188 -0.17578125 C18.94004958 -0.21291421 23.8105973 0.17078114 29.14477539 1.76220703 C31.33667089 2.24931717 31.33667089 2.24931717 34 0 C35.97265625 0.05859375 35.97265625 0.05859375 38.0625 0.4375 C41.77600533 1.34916816 41.77600533 1.34916816 44 0 C46.10528933 -0.08543895 48.21331157 -0.10714725 50.3203125 -0.09765625 C51.57714844 -0.09443359 52.83398438 -0.09121094 54.12890625 -0.08789062 C55.44761719 -0.07951172 56.76632812 -0.07113281 58.125 -0.0625 C59.46484211 -0.05748489 60.804686 -0.05292201 62.14453125 -0.04882812 C65.42973206 -0.03701086 68.71484397 -0.02053617 72 0 C71 2 71 2 69.2565918 2.60742188 C66.78121673 3.03806161 64.40596266 3.19531878 61.89453125 3.28125 C60.41823242 3.33732422 60.41823242 3.33732422 58.91210938 3.39453125 C57.37780273 3.44673828 57.37780273 3.44673828 55.8125 3.5 C47.4897026 3.77843128 47.4897026 3.77843128 39.203125 4.5546875 C35.37888501 5.01625589 31.78630716 4.94609552 27.9375 4.625 C26.66132813 4.52316406 25.38515625 4.42132812 24.0703125 4.31640625 C23.4093457 4.26242676 22.74837891 4.20844727 22.06738281 4.15283203 C19.91799021 3.9939374 17.76997671 3.87978945 15.6171875 3.77734375 C14.89797119 3.74108887 14.17875488 3.70483398 13.43774414 3.66748047 C11.41310823 3.56746973 9.38819883 3.47304188 7.36328125 3.37890625 C4.33605101 3.03785941 2.5478101 2.59318758 0 1 C0 0.67 0 0.34 0 0 Z " fill="#487382" transform="translate(306,594)"/>
<path d="M0 0 C2.31 0 4.62 0 7 0 C7.66 0.66 8.32 1.32 9 2 C3.125 6 3.125 6 2 6 C1.67 31.08 1.34 56.16 1 82 C0.67 82 0.34 82 0 82 C0 54.94 0 27.88 0 0 Z " fill="#155565" transform="translate(324,216)"/>
<path d="M0 0 C2 2 2 2 2.4375 4.3125 C1.80897379 8.17344672 -0.02736518 9.56784424 -3 12 C-5.3125 12.8125 -5.3125 12.8125 -7 13 C-7.144375 13.61875 -7.28875 14.2375 -7.4375 14.875 C-8.35940679 18.35775899 -8.84843875 18.89895917 -12 21 C-15.1875 21.125 -15.1875 21.125 -18 21 C-17.21625 20.2575 -16.4325 19.515 -15.625 18.75 C-13.43495469 16.45566682 -12.17268614 14.87841142 -11 12 C-10.01 12 -9.02 12 -8 12 C-7.67 11.01 -7.34 10.02 -7 9 C-6.34 9 -5.68 9 -5 9 C-4.896875 8.38125 -4.79375 7.7625 -4.6875 7.125 C-4 5 -4 5 -1 3 C-0.67 2.01 -0.34 1.02 0 0 Z " fill="#2C6074" transform="translate(486,522)"/>
<path d="M0 0 C1.25683594 0.00322266 2.51367188 0.00644531 3.80859375 0.00976562 C5.12730469 0.01814453 6.44601562 0.02652344 7.8046875 0.03515625 C9.14452961 0.04017136 10.4843735 0.04473424 11.82421875 0.04882812 C15.10941956 0.06064539 18.39453147 0.07712008 21.6796875 0.09765625 C20.6796875 2.09765625 20.6796875 2.09765625 18.98339844 2.71655273 C16.2265085 3.17262577 13.61541365 3.20957322 10.8203125 3.1953125 C9.70527344 3.19208984 8.59023438 3.18886719 7.44140625 3.18554688 C6.28253906 3.17716797 5.12367188 3.16878906 3.9296875 3.16015625 C2.75535156 3.15564453 1.58101563 3.15113281 0.37109375 3.14648438 C-2.52609322 3.13470719 -5.42317704 3.11825951 -8.3203125 3.09765625 C-8.3203125 2.43765625 -8.3203125 1.77765625 -8.3203125 1.09765625 C-5.50207058 -0.31146471 -3.14779968 -0.01417928 0 0 Z " fill="#5C7E8B" transform="translate(356.3203125,593.90234375)"/>
<path d="M0 0 C0.66 0 1.32 0 2 0 C2 11.55 2 23.1 2 35 C0.02 35.495 0.02 35.495 -2 36 C-1.84152588 35.49243164 -1.68305176 34.98486328 -1.51977539 34.46191406 C-0.82830633 31.18677364 -0.7656084 27.94303931 -0.68359375 24.609375 C-0.66281265 23.90476135 -0.64203156 23.20014771 -0.62062073 22.47418213 C-0.55546163 20.23288319 -0.49639752 17.99147136 -0.4375 15.75 C-0.39428274 14.22655103 -0.35066743 12.70311329 -0.30664062 11.1796875 C-0.19981509 7.45324409 -0.09845361 3.72667506 0 0 Z " fill="#4C8193" transform="translate(461,459)"/>
<path d="M0 0 C-0.1875 1.8125 -0.1875 1.8125 -1 4 C-7.27082558 8.65832757 -13.45489702 9.30180412 -21 9 C-18.31334578 7.20889718 -15.57803304 5.59595875 -12.76171875 4.01953125 C-11.28022094 3.16216777 -9.85102137 2.21533167 -8.4375 1.25 C-5.46049241 -0.27667056 -3.30044095 -0.23026332 0 0 Z " fill="#3C7385" transform="translate(433,574)"/>
<path d="M0 0 C0.33 0.66 0.66 1.32 1 2 C3.32156597 2.40729228 5.6568787 2.74438677 8 3 C8 3.99 8 4.98 8 6 C8.7425 5.938125 9.485 5.87625 10.25 5.8125 C13.53862891 6.0367247 14.48661008 6.95787069 17 9 C18.64797236 9.71162443 20.31165408 10.39031953 22 11 C16.12992965 12.95669012 12.42447336 11.57444915 6.890625 9.265625 C5 8 5 8 4.234375 5.859375 C4.15703125 5.24578125 4.0796875 4.6321875 4 4 C2.68 4 1.36 4 0 4 C0 2.68 0 1.36 0 0 Z " fill="#38697D" transform="translate(254,572)"/>
<path d="M0 0 C4.09362268 0.35596719 7.46242101 1.08608502 11.25 2.6875 C19.2748269 6.07492693 27.68426985 8.43868681 36 11 C36 11.33 36 11.66 36 12 C30.13091221 12.42684275 26.74882865 11.60603272 21.51953125 9.0234375 C16.88429566 7.14059762 11.93676905 6.63484678 7 6 C6.67 4.68 6.34 3.36 6 2 C3.03 1.505 3.03 1.505 0 1 C0 0.67 0 0.34 0 0 Z " fill="#6C939E" transform="translate(453,272)"/>
<path d="M0 0 C5.33581966 1.71831481 10.61849574 3.55162048 15.875 5.5 C16.96554687 5.9021875 18.05609375 6.304375 19.1796875 6.71875 C21.7729777 7.89686522 23.20268997 8.83820052 25 11 C18.36906706 10.65226572 12.946072 10.03910346 7 7 C7 6.01 7 5.02 7 4 C4.69 3.34 2.38 2.68 0 2 C0 1.34 0 0.68 0 0 Z " fill="#4B7785" transform="translate(428,261)"/>
<path d="M0 0 C19.18879006 -0.53192745 19.18879006 -0.53192745 26.64453125 2.265625 C31.27652364 3.70976193 36.17846792 3.75975184 41 4 C41 4.33 41 4.66 41 5 C37.99975053 5.05444001 35.00050961 5.0938836 32 5.125 C31.16082031 5.14175781 30.32164062 5.15851563 29.45703125 5.17578125 C23.94745123 5.21849117 19.28951708 4.55502007 14 3 C14 2.67 14 2.34 14 2 C7.07 1.505 7.07 1.505 0 1 C0 0.67 0 0.34 0 0 Z " fill="#73A0AB" transform="translate(126,434)"/>
<path d="M0 0 C0.66 0.99 1.32 1.98 2 3 C1.45859375 4.03060547 1.45859375 4.03060547 0.90625 5.08203125 C0.4421875 5.98308594 -0.021875 6.88414062 -0.5 7.8125 C-0.9640625 8.70582031 -1.428125 9.59914063 -1.90625 10.51953125 C-3.20173141 13.00568026 -3.20173141 13.00568026 -3 16 C-2.34 16.66 -1.68 17.32 -1 18 C-3.31 17.67 -5.62 17.34 -8 17 C-8.33 16.01 -8.66 15.02 -9 14 C-8.12935032 12.56007938 -7.24137103 11.12700804 -6.2578125 9.76171875 C-4.83285636 7.76589509 -3.54130748 5.70953922 -2.25 3.625 C-1.82203125 2.93664062 -1.3940625 2.24828125 -0.953125 1.5390625 C-0.63859375 1.03117188 -0.3240625 0.52328125 0 0 Z " fill="#30606E" transform="translate(330,543)"/>
<path d="M0 0 C6.20728932 1.58269041 12.25316949 3.12658474 18 6 C18.33 6.66 18.66 7.32 19 8 C20.89533342 8.46523063 20.89533342 8.46523063 23.0625 8.625 C24.361875 8.74875 25.66125 8.8725 27 9 C27 9.33 27 9.66 27 10 C23.7 10 20.4 10 17 10 C17 9.34 17 8.68 17 8 C16.27554687 7.89042969 15.55109375 7.78085937 14.8046875 7.66796875 C9.33712777 6.77128895 4.77713197 5.84045685 0 3 C0 2.01 0 1.02 0 0 Z " fill="#417383" transform="translate(286,317)"/>
<path d="M0 0 C0.33 0 0.66 0 1 0 C1.33 4.62 1.66 9.24 2 14 C1.01 14.495 1.01 14.495 0 15 C0 23.91 0 32.82 0 42 C0.66 42.33 1.32 42.66 2 43 C0.35 42.67 -1.3 42.34 -3 42 C-2.88184693 37.76396537 -2.75760568 33.52816674 -2.62768555 29.29248047 C-2.58433769 27.8511238 -2.54266248 26.40971582 -2.50268555 24.96826172 C-2.44497912 22.89795459 -2.38128629 20.82790568 -2.31640625 18.7578125 C-2.27974854 17.5114502 -2.24309082 16.26508789 -2.20532227 14.98095703 C-2 12 -2 12 -1 10 C-0.77377919 8.29636178 -0.59111527 6.58671299 -0.4375 4.875 C-0.31181641 3.50988281 -0.31181641 3.50988281 -0.18359375 2.1171875 C-0.12300781 1.41851562 -0.06242188 0.71984375 0 0 Z " fill="#1D5A6F" transform="translate(556,297)"/>
<path d="M0 0 C-0.33 0.99 -0.66 1.98 -1 3 C-3.31 3 -5.62 3 -8 3 C-8.061875 3.53625 -8.12375 4.0725 -8.1875 4.625 C-9.38027382 8.11156962 -11.56197166 10.24940393 -14 13 C-14.66 12.67 -15.32 12.34 -16 12 C-15.91776321 9.20394902 -15.41865393 7.47169095 -13.55078125 5.3671875 C-9.10340003 1.37322693 -6.01381746 0 0 0 Z " fill="#20576A" transform="translate(110,433)"/>
<path d="M0 0 C0.66 1.32 1.32 2.64 2 4 C1.37351563 4.32613281 0.74703125 4.65226563 0.1015625 4.98828125 C-0.71570313 5.42527344 -1.53296875 5.86226562 -2.375 6.3125 C-3.18710938 6.74175781 -3.99921875 7.17101562 -4.8359375 7.61328125 C-7.26834043 8.96778724 -7.26834043 8.96778724 -9 12 C-11.625 12.1875 -11.625 12.1875 -14 12 C-12.38405168 9.95880212 -10.7143618 7.95927063 -9 6 C-8.34 6 -7.68 6 -7 6 C-7 5.34 -7 4.68 -7 4 C-4.69 2.68 -2.38 1.36 0 0 Z " fill="#25596E" transform="translate(157,149)"/>
<path d="M0 0 C0.33 0 0.66 0 1 0 C1.24052011 8.25785714 0.97699579 14.61415067 -3 22 C-3.66 22 -4.32 22 -5 22 C-4.505 17.545 -4.505 17.545 -4 13 C-3.34 13 -2.68 13 -2 13 C-1.34 8.71 -0.68 4.42 0 0 Z " fill="#336A7C" transform="translate(538,407)"/>
<path d="M0 0 C0.99 0.33 1.98 0.66 3 1 C2.67 1.99 2.34 2.98 2 4 C1.34 4 0.68 4 0 4 C-0.13277344 4.90363281 -0.26554688 5.80726563 -0.40234375 6.73828125 C-0.57894531 7.91777344 -0.75554688 9.09726562 -0.9375 10.3125 C-1.11152344 11.48425781 -1.28554688 12.65601563 -1.46484375 13.86328125 C-2 17 -2 17 -3 20 C-3.66 19.67 -4.32 19.34 -5 19 C-4.74340689 16.76914933 -4.46912686 14.54032877 -4.1875 12.3125 C-4.03667969 11.07113281 -3.88585937 9.82976562 -3.73046875 8.55078125 C-3.01333526 5.06482218 -2.01965188 2.89391214 0 0 Z " fill="#3D7283" transform="translate(544,387)"/>
<path d="M0 0 C4.62 0 9.24 0 14 0 C14 0.66 14 1.32 14 2 C19.28 2 24.56 2 30 2 C30 2.33 30 2.66 30 3 C27.3753399 3.19430855 24.75053235 3.38073238 22.125 3.5625 C21.00544922 3.64661133 21.00544922 3.64661133 19.86328125 3.73242188 C14.2265625 4.11328125 14.2265625 4.11328125 12 3 C9.9625237 2.77141886 7.91959697 2.58975722 5.875 2.4375 C4.23144531 2.31181641 4.23144531 2.31181641 2.5546875 2.18359375 C1.71164063 2.12300781 0.86859375 2.06242187 0 2 C0 1.34 0 0.68 0 0 Z " fill="#144B5C" transform="translate(112,433)"/>
<path d="M0 0 C1.56118428 0.06740865 3.1250252 0.08514456 4.6875 0.0625 C5.49574219 0.05347656 6.30398438 0.04445313 7.13671875 0.03515625 C7.75160156 0.02355469 8.36648438 0.01195312 9 0 C9 0.33 9 0.66 9 1 C8.38511719 1.12117187 7.77023437 1.24234375 7.13671875 1.3671875 C6.32847656 1.53476562 5.52023437 1.70234375 4.6875 1.875 C3.88699219 2.03742187 3.08648437 2.19984375 2.26171875 2.3671875 C-0.25301118 2.94478999 -0.25301118 2.94478999 -3 5 C-6.1875 5.125 -6.1875 5.125 -9 5 C-8.00233891 2.50584728 -7.31383315 1.21259665 -5.0625 -0.3125 C-3 -1 -3 -1 0 0 Z " fill="#3C788C" transform="translate(375,555)"/>
<path d="M0 0 C0.99 0.66 1.98 1.32 3 2 C3 2.66 3 3.32 3 4 C2.01 4 1.02 4 0 4 C-0.54372951 7.05847848 -1 9.88772805 -1 13 C-3.31 13.33 -5.62 13.66 -8 14 C-7.67 13.34 -7.34 12.68 -7 12 C-6.34 12 -5.68 12 -5 12 C-4.9175 11.319375 -4.835 10.63875 -4.75 9.9375 C-3.77667472 6.1253093 -2.04192545 3.35929671 0 0 Z " fill="#20556B" transform="translate(502,498)"/>
<path d="M0 0 C4.50727647 0.60266785 7.8587963 2.36599794 11.8125 4.5625 C12.7087207 5.0565332 12.7087207 5.0565332 13.62304688 5.56054688 C15.08533998 6.36773267 16.5431399 7.18304917 18 8 C18 8.33 18 8.66 18 9 C15.69 9 13.38 9 11 9 C10.67 8.34 10.34 7.68 10 7 C8.329375 6.319375 8.329375 6.319375 6.625 5.625 C3.12563673 4.05631991 1.88694589 3.21890769 0 0 Z " fill="#55878F" transform="translate(409,252)"/>
<path d="M0 0 C2.31 0.66 4.62 1.32 7 2 C7 3.98 7 5.96 7 8 C8.65 7.67 10.3 7.34 12 7 C11.34 8.32 10.68 9.64 10 11 C7.96166576 9.7260411 5.96147874 8.38938077 4 7 C4 6.34 4 5.68 4 5 C2.68 4.67 1.36 4.34 0 4 C0 2.68 0 1.36 0 0 Z " fill="#2F6A84" transform="translate(230,659)"/>
<path d="M0 0 C0.66 0.99 1.32 1.98 2 3 C-0.31 6.3 -2.62 9.6 -5 13 C-6.65 12.67 -8.3 12.34 -10 12 C-9.34 11.67 -8.68 11.34 -8 11 C-6.86649466 8.98330173 -6.86649466 8.98330173 -6 7 C-5.34 7 -4.68 7 -4 7 C-3.34 5.68 -2.68 4.36 -2 3 C-1.34 3 -0.68 3 0 3 C0 2.01 0 1.02 0 0 Z " fill="#387185" transform="translate(137,167)"/>
<path d="M0 0 C0.99 0.33 1.98 0.66 3 1 C1.92598892 3.91517292 1.22189824 5.77810176 -1 8 C-1.64767793 10.57061311 -1.64767793 10.57061311 -2 13 C-3.32 12.67 -4.64 12.34 -6 12 C-5.34 12 -4.68 12 -4 12 C-3.96261719 11.38511719 -3.92523438 10.77023437 -3.88671875 10.13671875 C-3.78810547 8.92435547 -3.78810547 8.92435547 -3.6875 7.6875 C-3.62949219 6.88699219 -3.57148438 6.08648437 -3.51171875 5.26171875 C-2.91793306 2.63727666 -2.04219706 1.69179328 0 0 Z " fill="#487687" transform="translate(513,476)"/>
<path d="M0 0 C0.66 1.32 1.32 2.64 2 4 C1.44828125 4.13277344 0.8965625 4.26554687 0.328125 4.40234375 C-2.22050602 5.05660641 -4.73159343 5.80035064 -7.25 6.5625 C-8.14203125 6.83191406 -9.0340625 7.10132812 -9.953125 7.37890625 C-10.62859375 7.58386719 -11.3040625 7.78882812 -12 8 C-12.66 7.34 -13.32 6.68 -14 6 C-9.6147081 3.02931839 -5.01508715 1.54058233 0 0 Z " fill="#346D82" transform="translate(241,104)"/>
<path d="M0 0 C-0.92652701 1.17539996 -1.86663387 2.34010577 -2.8125 3.5 C-3.33457031 4.1496875 -3.85664063 4.799375 -4.39453125 5.46875 C-6 7 -6 7 -9 7 C-9.66 6.01 -10.32 5.02 -11 4 C-7.65667474 -0.27945633 -5.29105716 -0.4070044 0 0 Z " fill="#185369" transform="translate(195,127)"/>
<path d="M0 0 C6.40353322 -0.2361959 11.84629161 0.176679 18 2 C16 4 16 4 14.0546875 4.1953125 C12.03645833 4.13020833 10.01822917 4.06510417 8 4 C8 3.34 8 2.68 8 2 C5.36 1.67 2.72 1.34 0 1 C0 0.67 0 0.34 0 0 Z " fill="#3C6674" transform="translate(292,591)"/>
<path d="M0 0 C1.58294782 -0.05437607 3.16644256 -0.09296271 4.75 -0.125 C5.63171875 -0.14820313 6.5134375 -0.17140625 7.421875 -0.1953125 C10.14906426 0.01129275 11.71315408 0.52694159 14 2 C14.33 2.66 14.66 3.32 15 4 C15.99 4.66 16.98 5.32 18 6 C13.68068613 5.38388165 9.74791225 4.35761422 5.625 2.9375 C4.56539063 2.57527344 3.50578125 2.21304687 2.4140625 1.83984375 C1.61742187 1.56269531 0.82078125 1.28554688 0 1 C0 0.67 0 0.34 0 0 Z " fill="#174F63" transform="translate(304,327)"/>
<path d="M0 0 C4.76551013 1.37605916 8.7248553 3.46778066 12.875 6.125 C13.46796875 6.49753906 14.0609375 6.87007812 14.671875 7.25390625 C16.1181343 8.16365 17.55958046 9.08103798 19 10 C16 11 16 11 13.51953125 10.00390625 C12.62621094 9.52824219 11.73289062 9.05257812 10.8125 8.5625 C9.91144531 8.08941406 9.01039063 7.61632812 8.08203125 7.12890625 C7.39496094 6.75636719 6.70789063 6.38382813 6 6 C6 5.34 6 4.68 6 4 C4.68 4 3.36 4 2 4 C1.34 2.68 0.68 1.36 0 0 Z " fill="#65939E" transform="translate(365,228)"/>
<path d="M0 0 C0.33 0 0.66 0 1 0 C1.7230444 7.10993658 1.7230444 7.10993658 -0.3359375 9.64453125 C-2 11 -2 11 -5 13 C-5 9.51038791 -4.09620626 7.88519705 -2.5 4.8125 C-2.0359375 3.91144531 -1.571875 3.01039063 -1.09375 2.08203125 C-0.7328125 1.39496094 -0.371875 0.70789063 0 0 Z " fill="#326375" transform="translate(340,527)"/>
<path d="M0 0 C0.66 0.33 1.32 0.66 2 1 C2.625 3.5625 2.625 3.5625 3 6 C-0.75 9 -0.75 9 -3 9 C-2.25 2.25 -2.25 2.25 0 0 Z " fill="#2A6076" transform="translate(492,514)"/>
<path d="M0 0 C2.60727722 0.42304498 5.20982778 0.86268305 7.8125 1.3125 C8.91948242 1.48942383 8.91948242 1.48942383 10.04882812 1.66992188 C14.30012906 2.42015145 15.85334064 2.85334064 19 6 C13.06 5.01 7.12 4.02 1 3 C0.67 2.01 0.34 1.02 0 0 Z " fill="#528592" transform="translate(499,287)"/>
<path d="M0 0 C0 0.66 0 1.32 0 2 C-0.99 2.495 -0.99 2.495 -2 3 C-3.01866229 4.65532623 -4.01810813 6.32260138 -5 8 C-5.66 8.66 -6.32 9.32 -7 10 C-7.69748583 11.31747324 -8.36959957 12.64914193 -9 14 C-8.25 7.25 -8.25 7.25 -6 5 C-6 3.68 -6 2.36 -6 1 C-4 0 -4 0 0 0 Z " fill="#2C6074" transform="translate(240,212)"/>
<path d="M0 0 C3.15579194 0.63115839 5.47275215 1.72104592 8.1875 3.4375 C8.88230469 3.86933594 9.57710937 4.30117188 10.29296875 4.74609375 C12 6 12 6 13 8 C13.66 8.33 14.32 8.66 15 9 C14.01 9.33 13.02 9.66 12 10 C9.51953125 8.63671875 9.51953125 8.63671875 6.8125 6.6875 C5.91144531 6.05199219 5.01039063 5.41648437 4.08203125 4.76171875 C3.39496094 4.18035156 2.70789063 3.59898437 2 3 C2 2.34 2 1.68 2 1 C1.34 0.67 0.68 0.34 0 0 Z " fill="#407284" transform="translate(207,644)"/>
<path d="M0 0 C4.9723422 1.49170266 9.41845739 3.60457417 14 6 C14 6.33 14 6.66 14 7 C11.69 7 9.38 7 7 7 C6.67 6.01 6.34 5.02 6 4 C5.01 4 4.02 4 3 4 C3 3.34 3 2.68 3 2 C1.68 1.67 0.36 1.34 -1 1 C-0.67 0.67 -0.34 0.34 0 0 Z " fill="#4A7B8D" transform="translate(395,245)"/>
<path d="M0 0 C3.375 -0.125 3.375 -0.125 7 0 C7.66 0.66 8.32 1.32 9 2 C7.02 3.32 5.04 4.64 3 6 C2.67 5.01 2.34 4.02 2 3 C1.34 3 0.68 3 0 3 C0 2.01 0 1.02 0 0 Z " fill="#0F4454" transform="translate(324,216)"/>
<path d="M0 0 C1.6498275 0.42218816 3.29483665 0.86324425 4.9375 1.3125 C6.31228516 1.67794922 6.31228516 1.67794922 7.71484375 2.05078125 C8.46894531 2.36402344 9.22304688 2.67726563 10 3 C10.33 3.99 10.66 4.98 11 6 C8.75 6.6875 8.75 6.6875 6 7 C2.72021008 5.21954261 1.5507703 3.29965664 0 0 Z " fill="#376D7D" transform="translate(276,584)"/>
<path d="M0 0 C0.33 0.66 0.66 1.32 1 2 C3.32156597 2.40729228 5.6568787 2.74438677 8 3 C8 3.99 8 4.98 8 6 C9.65 6 11.3 6 13 6 C13 6.33 13 6.66 13 7 C6.25 7.125 6.25 7.125 4 6 C4 5.34 4 4.68 4 4 C2.68 4 1.36 4 0 4 C0 2.68 0 1.36 0 0 Z " fill="#598D9B" transform="translate(254,572)"/>
<path d="M0 0 C2.31 0 4.62 0 7 0 C7 2.97 7 5.94 7 9 C4.04070881 6.24479785 1.96318174 3.53372712 0 0 Z " fill="#2B6E84" transform="translate(115,345)"/>
<path d="M0 0 C0.33 0 0.66 0 1 0 C1.25 7.625 1.25 7.625 -1 11 C-1.99 11 -2.98 11 -4 11 C-3.21681311 7.08406554 -1.60820142 3.63593365 0 0 Z " fill="#2E5E71" transform="translate(518,465)"/>
<path d="M0 0 C2.375 0.3125 2.375 0.3125 5 1 C7.1519437 4.22791555 7.20086443 5.28400809 7 9 C3.26115668 6.34345343 1.35021826 4.41889613 0 0 Z " fill="#326676" transform="translate(419,386)"/>
<path d="M0 0 C0.66 0.66 1.32 1.32 2 2 C1.86328125 4.3125 1.86328125 4.3125 1.3125 7 C1.14363281 7.886875 0.97476563 8.77375 0.80078125 9.6875 C0 12 0 12 -3 14 C-2.09276387 9.31261335 -1.0452733 4.65806256 0 0 Z " fill="#3D7180" transform="translate(106,213)"/>
<path d="M0 0 C3.3 1.65 6.6 3.3 10 5 C10 5.66 10 6.32 10 7 C10.99 7.33 11.98 7.66 13 8 C10.75 8.75 10.75 8.75 8 9 C5.9375 7.125 5.9375 7.125 4 5 C1.8618034 4.2127322 1.8618034 4.2127322 0 4 C0 2.68 0 1.36 0 0 Z " fill="#4B7D8E" transform="translate(445,163)"/>
<path d="M0 0 C0 0.66 0 1.32 0 2 C-3.75 3.125 -3.75 3.125 -6 2 C-6 3.32 -6 4.64 -6 6 C-6.99 6 -7.98 6 -9 6 C-9.33 5.01 -9.66 4.02 -10 3 C-7.29536552 -0.8183075 -4.37912428 -0.24787496 0 0 Z " fill="#3C7385" transform="translate(266,94)"/>
<path d="M0 0 C-0.99 0.33 -1.98 0.66 -3 1 C-3.33 1.99 -3.66 2.98 -4 4 C-5.84765625 4.73046875 -5.84765625 4.73046875 -8.0625 5.1875 C-8.79597656 5.34605469 -9.52945312 5.50460937 -10.28515625 5.66796875 C-11.13400391 5.83232422 -11.13400391 5.83232422 -12 6 C-12 5.01 -12 4.02 -12 3 C-4.71428571 -0.42857143 -4.71428571 -0.42857143 0 0 Z " fill="#335967" transform="translate(431,575)"/>
<path d="M0 0 C1.60080151 4.00200378 0.29279692 7.04556236 -1 11 C-1.66 11 -2.32 11 -3 11 C-3 11.66 -3 12.32 -3 13 C-3.66 12.67 -4.32 12.34 -5 12 C-4.35758106 10.186287 -3.71096881 8.37405876 -3.0625 6.5625 C-2.70285156 5.55316406 -2.34320312 4.54382813 -1.97265625 3.50390625 C-1 1 -1 1 0 0 Z " fill="#407080" transform="translate(528,442)"/>
<path d="M0 0 C2.375 2 2.375 2 4 4 C2.37419034 3.88601335 0.74932843 3.75844341 -0.875 3.625 C-1.77992188 3.55539062 -2.68484375 3.48578125 -3.6171875 3.4140625 C-6 3 -6 3 -8 1 C-5.15916359 -0.42041821 -3.14522722 -0.31452272 0 0 Z " fill="#3E6D7F" transform="translate(177,440)"/>
<path d="M0 0 C0.66 0.33 1.32 0.66 2 1 C0.66666667 5.66666667 -0.66666667 10.33333333 -2 15 C-2.66 15 -3.32 15 -4 15 C-4.33 14.01 -4.66 13.02 -5 12 C-4.01 12 -3.02 12 -2 12 C-2.02320313 11.30132812 -2.04640625 10.60265625 -2.0703125 9.8828125 C-2.08835937 8.97273438 -2.10640625 8.06265625 -2.125 7.125 C-2.14820313 6.22007812 -2.17140625 5.31515625 -2.1953125 4.3828125 C-2 2 -2 2 0 0 Z " fill="#417489" transform="translate(583,421)"/>
<path d="M0 0 C4.62 0 9.24 0 14 0 C14 0.66 14 1.32 14 2 C4.58997722 3.51708428 4.58997722 3.51708428 0 1 C0 0.67 0 0.34 0 0 Z " fill="#0F4D65" transform="translate(562,211)"/>
<path d="M0 0 C2.97722547 0.70333538 5.85256543 1.58248537 8.75 2.5625 C9.94882812 2.96662109 9.94882812 2.96662109 11.171875 3.37890625 C11.77515625 3.58386719 12.3784375 3.78882813 13 4 C13 4.33 13 4.66 13 5 C8.545 5.495 8.545 5.495 4 6 C3.71125 5.195625 3.4225 4.39125 3.125 3.5625 C2.26737432 0.8673532 2.26737432 0.8673532 0 0 Z " fill="#568495" transform="translate(263,306)"/>
<path d="M0 0 C2.475 0.495 2.475 0.495 5 1 C4.67 3.31 4.34 5.62 4 8 C3.67 7.34 3.34 6.68 3 6 C2.01 6 1.02 6 0 6 C0 4.02 0 2.04 0 0 Z " fill="#0B4E66" transform="translate(82,497)"/>
<path d="M0 0 C1.1171875 1.734375 1.1171875 1.734375 2 4 C1.3203125 6.140625 1.3203125 6.140625 0.125 8.25 C-0.26429688 8.95640625 -0.65359375 9.6628125 -1.0546875 10.390625 C-1.36664063 10.92171875 -1.67859375 11.4528125 -2 12 C-2.99 12 -3.98 12 -5 12 C-4.34 11.01 -3.68 10.02 -3 9 C-2.83286431 6.37468476 -2.83286431 6.37468476 -3 4 C-2.34 3.67 -1.68 3.34 -1 3 C-0.67 2.01 -0.34 1.02 0 0 Z " fill="#2F6980" transform="translate(219,458)"/>
<path d="M0 0 C0.33 0 0.66 0 1 0 C1.309375 0.969375 1.61875 1.93875 1.9375 2.9375 C2.69523342 5.84065792 2.69523342 5.84065792 4 7 C4.23287008 8.68183948 4.41264166 10.3712416 4.5625 12.0625 C4.64628906 12.98160156 4.73007812 13.90070313 4.81640625 14.84765625 C4.87699219 15.55792969 4.93757813 16.26820313 5 17 C4.34 17 3.68 17 3 17 C2.67 13.7 2.34 10.4 2 7 C1.01 6.67 0.02 6.34 -1 6 C-0.67 4.02 -0.34 2.04 0 0 Z " fill="#4E7B8A" transform="translate(454,430)"/>
<path d="M0 0 C1.49828872 3.88235819 0.43110582 6.43449288 -0.9375 10.25 C-1.31777344 11.32765625 -1.69804687 12.4053125 -2.08984375 13.515625 C-2.39019531 14.33546875 -2.69054687 15.1553125 -3 16 C-3.33 16 -3.66 16 -4 16 C-4.14285714 8.57142857 -4.14285714 8.57142857 -3 5 C-2.34 5 -1.68 5 -1 5 C-0.67 3.35 -0.34 1.7 0 0 Z " fill="#548796" transform="translate(502,410)"/>
<path d="M0 0 C4.44870215 -0.39253254 7.14243493 0.84694043 11 3 C10.01 4.485 10.01 4.485 9 6 C4.545 4.02 4.545 4.02 0 2 C0 1.34 0 0.68 0 0 Z " fill="#38768A" transform="translate(458,234)"/>
<path d="M0 0 C1.65 0.33 3.3 0.66 5 1 C3.7260411 3.03833424 2.38938077 5.03852126 1 7 C0.34 7 -0.32 7 -1 7 C-0.67 4.69 -0.34 2.38 0 0 Z " fill="#1D5970" transform="translate(122,185)"/>
<path d="M0 0 C3.63 1.98 7.26 3.96 11 6 C10.01 6.66 9.02 7.32 8 8 C8 7.34 8 6.68 8 6 C6.35 6.33 4.7 6.66 3 7 C2.67 5.68 2.34 4.36 2 3 C1.34 3 0.68 3 0 3 C0 2.01 0 1.02 0 0 Z " fill="#4A7C8D" transform="translate(406,137)"/>
<path d="M0 0 C6.6 0 13.2 0 20 0 C20.33 0.66 20.66 1.32 21 2 C20.01 2.33 19.02 2.66 18 3 C17.34 2.67 16.68 2.34 16 2 C13.28737884 1.7677354 10.59226874 1.58063765 7.875 1.4375 C7.12089844 1.39431641 6.36679688 1.35113281 5.58984375 1.30664062 C3.72678112 1.2005168 1.86341476 1.09974999 0 1 C0 0.67 0 0.34 0 0 Z " fill="#10495B" transform="translate(150,439)"/>
<path d="M0 0 C3.375 0.25 3.375 0.25 7 1 C8.4375 3.0625 8.4375 3.0625 9 5 C10.65 5 12.3 5 14 5 C14.33 5.66 14.66 6.32 15 7 C12.36 6.67 9.72 6.34 7 6 C6.67 4.68 6.34 3.36 6 2 C3.03 1.505 3.03 1.505 0 1 C0 0.67 0 0.34 0 0 Z " fill="#467182" transform="translate(453,272)"/>
<path d="M0 0 C2.0625 1.75 2.0625 1.75 4 4 C3.75 6.25 3.75 6.25 3 8 C1.68 7.67 0.36 7.34 -1 7 C-1.625 5.1875 -1.625 5.1875 -2 3 C-1.34 2.01 -0.68 1.02 0 0 Z " fill="#226581" transform="translate(523,547)"/>
<path d="M0 0 C0 0.33 0 0.66 0 1 C-3.3 1.66 -6.6 2.32 -10 3 C-10.33 2.34 -10.66 1.68 -11 1 C-8.58139369 -3.83721261 -4.10632509 -1.31712314 0 0 Z " fill="#256177" transform="translate(205,450)"/>
<path d="M0 0 C2.4375 0.6875 2.4375 0.6875 5 2 C5.8125 4.625 5.8125 4.625 6 7 C3.97954558 6.39816251 1.97888961 5.72693904 0 5 C-0.33 4.34 -0.66 3.68 -1 3 C-0.34 3 0.32 3 1 3 C0.67 2.01 0.34 1.02 0 0 Z " fill="#30708A" transform="translate(222,419)"/>
<path d="M0 0 C0.66 0.66 1.32 1.32 2 2 C1.67 2.99 1.34 3.98 1 5 C1.08461492 6.73324119 1.23604355 8.46392812 1.4375 10.1875 C1.53933594 11.08855469 1.64117187 11.98960937 1.74609375 12.91796875 C1.82988281 13.60503906 1.91367188 14.29210937 2 15 C0.09610151 12.14415227 -0.69462177 10.0688238 -1.625 6.8125 C-2.01558594 5.46091797 -2.01558594 5.46091797 -2.4140625 4.08203125 C-2.60742188 3.39496094 -2.80078125 2.70789063 -3 2 C-2.01 2 -1.02 2 0 2 C0 1.34 0 0.68 0 0 Z " fill="#508B9D" transform="translate(102,306)"/>
<path d="M0 0 C1.60332791 -0.08121924 3.20784026 -0.13929134 4.8125 -0.1875 C6.15248047 -0.23970703 6.15248047 -0.23970703 7.51953125 -0.29296875 C10.41647515 0.04918998 11.22555028 0.75393573 13 3 C11.20759337 2.88610125 9.41605165 2.75852313 7.625 2.625 C6.12839844 2.52058594 6.12839844 2.52058594 4.6015625 2.4140625 C2 2 2 2 0 0 Z " fill="#376875" transform="translate(440,269)"/>
<path d="M0 0 C1.32 0.66 2.64 1.32 4 2 C3 4 3 4 0.1875 5.25 C-3 6 -3 6 -5.375 5.125 C-5.91125 4.75375 -6.4475 4.3825 -7 4 C-5.02 3.67 -3.04 3.34 -1 3 C-0.67 2.01 -0.34 1.02 0 0 Z " fill="#296479" transform="translate(275,87)"/>
<path d="M0 0 C0.33 0.66 0.66 1.32 1 2 C3.01669827 3.13350534 3.01669827 3.13350534 5 4 C5 4.66 5 5.32 5 6 C5.66 6.33 6.32 6.66 7 7 C4.6875 7.25 4.6875 7.25 2 7 C0.125 5.1875 0.125 5.1875 -1 3 C-0.67 2.01 -0.34 1.02 0 0 Z " fill="#5C8A9E" transform="translate(230,552)"/>
<path d="M0 0 C1.98 0.495 1.98 0.495 4 1 C4 2.65 4 4.3 4 6 C2.68 6 1.36 6 0 6 C-1.125 2.25 -1.125 2.25 0 0 Z " fill="#06434E" transform="translate(491,424)"/>
<path d="M0 0 C0.33 0 0.66 0 1 0 C1.36517527 6.57315478 0.13619737 11.79485526 -2 18 C-2.33 18 -2.66 18 -3 18 C-3 15.69 -3 13.38 -3 11 C-2.34 11 -1.68 11 -1 11 C-0.67 7.37 -0.34 3.74 0 0 Z " fill="#5D97A4" transform="translate(594,373)"/>
<path d="M0 0 C0.66 0 1.32 0 2 0 C1.67 3.63 1.34 7.26 1 11 C0.34 11 -0.32 11 -1 11 C-1.14285714 3.57142857 -1.14285714 3.57142857 0 0 Z " fill="#437083" transform="translate(596,358)"/>
<path d="M0 0 C1.27875 -0.061875 2.5575 -0.12375 3.875 -0.1875 C4.95394531 -0.23970703 4.95394531 -0.23970703 6.0546875 -0.29296875 C6.69664062 -0.19628906 7.33859375 -0.09960938 8 0 C8.66 0.99 9.32 1.98 10 3 C12.05003955 4.19232613 12.05003955 4.19232613 14 5 C13.01 5.495 13.01 5.495 12 6 C9.92803369 5.26821134 7.8891448 4.44100997 5.875 3.5625 C4.77929688 3.08941406 3.68359375 2.61632812 2.5546875 2.12890625 C1.71164062 1.75636719 0.86859375 1.38382812 0 1 C0 0.67 0 0.34 0 0 Z " fill="#5E909F" transform="translate(363,314)"/>
<path d="M0 0 C3.63 0.66 7.26 1.32 11 2 C11.33 2.99 11.66 3.98 12 5 C11.236875 4.814375 10.47375 4.62875 9.6875 4.4375 C6.91032625 3.77180827 6.91032625 3.77180827 4 5 C2.68 3.35 1.36 1.7 0 0 Z " fill="#104B61" transform="translate(478,282)"/>
<path d="M0 0 C4 4.75 4 4.75 4 7 C2.35 7.33 0.7 7.66 -1 8 C-1.33 7.01 -1.66 6.02 -2 5 C-1.34 5 -0.68 5 0 5 C0 3.35 0 1.7 0 0 Z " fill="#2D6A7F" transform="translate(227,270)"/>
<path d="M0 0 C0 0.99 0 1.98 0 3 C-2.31 3.33 -4.62 3.66 -7 4 C-7.33 3.01 -7.66 2.02 -8 1 C-5.07175348 0.02391783 -3.04386724 -0.08226668 0 0 Z " fill="#336173" transform="translate(384,592)"/>
<path d="M0 0 C2.31 0 4.62 0 7 0 C4.53846154 3.81538462 4.53846154 3.81538462 1.8125 4.75 C1.214375 4.8325 0.61625 4.915 0 5 C0 3.35 0 1.7 0 0 Z " fill="#164B5D" transform="translate(402,585)"/>
<path d="M0 0 C0.99 0.33 1.98 0.66 3 1 C3 2.65 3 4.3 3 6 C1.68 6 0.36 6 -1 6 C-1.33 4.68 -1.66 3.36 -2 2 C-1.34 2 -0.68 2 0 2 C0 1.34 0 0.68 0 0 Z " fill="#0B5067" transform="translate(275,441)"/>
<path d="M0 0 C0.99 0 1.98 0 3 0 C1.52307692 4.67692308 1.52307692 4.67692308 -1.125 6.3125 C-1.74375 6.539375 -2.3625 6.76625 -3 7 C-3.99 5.35 -4.98 3.7 -6 2 C-5.34 2 -4.68 2 -4 2 C-4 2.66 -4 3.32 -4 4 C-2.68 4 -1.36 4 0 4 C0 2.68 0 1.36 0 0 Z " fill="#608C95" transform="translate(495,426)"/>
<path d="M0 0 C0.33 0 0.66 0 1 0 C1.05399736 1.45792884 1.09279177 2.91642712 1.125 4.375 C1.14820313 5.18710937 1.17140625 5.99921875 1.1953125 6.8359375 C1 9 1 9 -1 11 C-1.33 8.03 -1.66 5.06 -2 2 C-1.34 2 -0.68 2 0 2 C0 1.34 0 0.68 0 0 Z " fill="#0C455D" transform="translate(516,329)"/>
<path d="M0 0 C2.64 0 5.28 0 8 0 C6 3 6 3 2.875 3.6875 C1.92625 3.790625 0.9775 3.89375 0 4 C0 2.68 0 1.36 0 0 Z " fill="#0F4B62" transform="translate(242,103)"/>
<path d="M0 0 C0.33 0.66 0.66 1.32 1 2 C3.32156597 2.40729228 5.6568787 2.74438677 8 3 C8 3.66 8 4.32 8 5 C5.1875 5.25 5.1875 5.25 2 5 C0.125 3 0.125 3 -1 1 C-0.67 0.67 -0.34 0.34 0 0 Z " fill="#387289" transform="translate(199,639)"/>
<path d="M0 0 C0.99 0 1.98 0 3 0 C3.33 0.99 3.66 1.98 4 3 C2.1875 5 2.1875 5 0 7 C-0.99 7 -1.98 7 -3 7 C-3 6.34 -3 5.68 -3 5 C-2.01 5 -1.02 5 0 5 C0 3.35 0 1.7 0 0 Z " fill="#3B768C" transform="translate(506,574)"/>
<path d="M0 0 C0.66 0.33 1.32 0.66 2 1 C1.67 2.65 1.34 4.3 1 6 C-3.455 6.495 -3.455 6.495 -8 7 C-7.236875 6.401875 -6.47375 5.80375 -5.6875 5.1875 C-3.6516425 3.53040668 -1.8021721 1.89702326 0 0 Z " fill="#416070" transform="translate(446,561)"/>
<path d="M0 0 C2.64 0 5.28 0 8 0 C5.87219421 2.34058637 3.88437779 3.70700306 1 5 C0.67 3.35 0.34 1.7 0 0 Z " fill="#11495E" transform="translate(466,543)"/>
<path d="M0 0 C0.66 0 1.32 0 2 0 C1.49287967 3.71888239 0.88391785 6.73454239 -1 10 C-1.33 10 -1.66 10 -2 10 C-2.25 3.375 -2.25 3.375 0 0 Z " fill="#437C8E" transform="translate(587,407)"/>
<path d="M0 0 C3.94120709 0.56302958 6.7508723 1.6791945 10 4 C10 4.66 10 5.32 10 6 C6.40992874 4.66654496 3.20429093 3.1056769 0 1 C0 0.67 0 0.34 0 0 Z " fill="#578598" transform="translate(410,337)"/>
<path d="M0 0 C6.47556391 0.61090226 6.47556391 0.61090226 8.9375 2.4375 C10 4 10 4 10 6 C5.56909529 4.79157144 3.01887244 3.48331435 0 0 Z " fill="#6795A2" transform="translate(400,331)"/>
<path d="M0 0 C0.24492187 0.61359375 0.48984375 1.2271875 0.7421875 1.859375 C2.25052285 4.42635567 3.44256788 5.03857904 6.125 6.25 C6.84945313 6.58515625 7.57390625 6.9203125 8.3203125 7.265625 C8.87460937 7.50796875 9.42890625 7.7503125 10 8 C6.21801096 9.26066301 4.63636792 8.42292658 1 7 C0 6 0 6 -0.0625 2.9375 C-0.041875 1.968125 -0.02125 0.99875 0 0 Z " fill="#0B4856" transform="translate(325,293)"/>
<path d="M0 0 C0.33 0.99 0.66 1.98 1 3 C1.99 3.33 2.98 3.66 4 4 C0.99166904 5.50416548 -1.34961578 4.60839737 -4.625 4.0625 C-5.81351562 3.86785156 -7.00203125 3.67320312 -8.2265625 3.47265625 C-9.59941406 3.23869141 -9.59941406 3.23869141 -11 3 C-11 2.67 -11 2.34 -11 2 C-10.28972656 1.93941406 -9.57945312 1.87882813 -8.84765625 1.81640625 C-7.46900391 1.69072266 -7.46900391 1.69072266 -6.0625 1.5625 C-5.14597656 1.48128906 -4.22945313 1.40007812 -3.28515625 1.31640625 C-1.03840268 1.23955024 -1.03840268 1.23955024 0 0 Z " fill="#6FA3B3" transform="translate(509,249)"/>
<path d="M0 0 C4.62 0 9.24 0 14 0 C14 0.33 14 0.66 14 1 C10.04 1.66 6.08 2.32 2 3 C2 2.34 2 1.68 2 1 C1.34 0.67 0.68 0.34 0 0 Z " fill="#164A5C" transform="translate(382,591)"/>
<path d="M0 0 C6.4 -0.49230769 6.4 -0.49230769 9.4375 2 C10.2109375 2.99 10.2109375 2.99 11 4 C9.35232753 3.71890887 7.70686855 3.42481474 6.0625 3.125 C4.68771484 2.88136719 4.68771484 2.88136719 3.28515625 2.6328125 C2.53105469 2.42398437 1.77695312 2.21515625 1 2 C0.67 1.34 0.34 0.68 0 0 Z " fill="#477888" transform="translate(346,343)"/>
<path d="M0 0 C0.33 0.99 0.66 1.98 1 3 C-0.32 4.32 -1.64 5.64 -3 7 C-3.66 6.67 -4.32 6.34 -5 6 C-4.67 4.68 -4.34 3.36 -4 2 C-2.68 2 -1.36 2 0 2 C0 1.34 0 0.68 0 0 Z " fill="#125873" transform="translate(262,304)"/>
<path d="M0 0 C0.33 0.66 0.66 1.32 1 2 C0.2884375 3.175625 0.2884375 3.175625 -0.4375 4.375 C-2.34098924 7.06372236 -2.34098924 7.06372236 -2 11 C-2.66 11 -3.32 11 -4 11 C-4 8.36 -4 5.72 -4 3 C-3.01 3 -2.02 3 -1 3 C-0.67 2.01 -0.34 1.02 0 0 Z " fill="#0F4A60" transform="translate(558,268)"/>
<path d="M0 0 C0.99 0.66 1.98 1.32 3 2 C5.27912938 2.45394552 5.27912938 2.45394552 7.6875 2.625 C8.49574219 2.69976562 9.30398438 2.77453125 10.13671875 2.8515625 C10.75160156 2.90054688 11.36648438 2.94953125 12 3 C12 3.33 12 3.66 12 4 C7.71 4 3.42 4 -1 4 C-1.33 3.34 -1.66 2.68 -2 2 C-1.34 2 -0.68 2 0 2 C0 1.34 0 0.68 0 0 Z " fill="#6D95A3" transform="translate(517,195)"/>
<path d="M0 0 C0.66 0.99 1.32 1.98 2 3 C1.01 4.485 1.01 4.485 0 6 C-2.625 6.1875 -2.625 6.1875 -5 6 C-3.35 4.02 -1.7 2.04 0 0 Z " fill="#446C7B" transform="translate(148,155)"/>
<path d="M0 0 C5.875 3.625 5.875 3.625 7 7 C5.35 7 3.7 7 2 7 C2 6.34 2 5.68 2 5 C1.34 4.67 0.68 4.34 0 4 C0 2.68 0 1.36 0 0 Z " fill="#437385" transform="translate(417,144)"/>
<path d="M0 0 C0.99 0.33 1.98 0.66 3 1 C2.67 3.64 2.34 6.28 2 9 C1.34 9 0.68 9 0 9 C0 6.03 0 3.06 0 0 Z " fill="#074A64" transform="translate(122,586)"/>
<path d="M0 0 C1 2 2 4 3 6 C0.69 6.33 -1.62 6.66 -4 7 C-3.67 6.34 -3.34 5.68 -3 5 C-2.34 5 -1.68 5 -1 5 C-0.67 3.35 -0.34 1.7 0 0 Z " fill="#396C7B" transform="translate(498,505)"/>
<path d="M0 0 C-0.33 0.99 -0.66 1.98 -1 3 C-3.97 3 -6.94 3 -10 3 C-7.02931146 0.02931146 -4.09966187 0 0 0 Z " fill="#4C798A" transform="translate(110,433)"/>
<path d="M0 0 C0.4125 0.474375 0.825 0.94875 1.25 1.4375 C3.182185 3.16266518 4.48192275 3.56584875 7 4 C6.67 4.66 6.34 5.32 6 6 C-0.75 4.375 -0.75 4.375 -3 1 C-2.01 0.67 -1.02 0.34 0 0 Z " fill="#4D8498" transform="translate(237,427)"/>
<path d="M0 0 C6.625 0.75 6.625 0.75 10 3 C9.67 3.99 9.34 4.98 9 6 C6.03 4.35 3.06 2.7 0 1 C0 0.67 0 0.34 0 0 Z " fill="#457C8B" transform="translate(408,211)"/>
<path d="M0 0 C0.99 0 1.98 0 3 0 C3 0.66 3 1.32 3 2 C5.31 2.33 7.62 2.66 10 3 C10 3.33 10 3.66 10 4 C2.25 4.125 2.25 4.125 0 3 C0 2.01 0 1.02 0 0 Z " fill="#316274" transform="translate(460,172)"/>
<path d="M0 0 C0.66 0 1.32 0 2 0 C2.33 0.99 2.66 1.98 3 3 C1.25 4.5625 1.25 4.5625 -1 6 C-3.25 5.6875 -3.25 5.6875 -5 5 C-3.68 4.67 -2.36 4.34 -1 4 C-0.67 2.68 -0.34 1.36 0 0 Z " fill="#0A4864" transform="translate(204,120)"/>
<path d="M0 0 C0 0.66 0 1.32 0 2 C-4.43076923 4.09230769 -4.43076923 4.09230769 -7.3125 3.625 C-7.869375 3.41875 -8.42625 3.2125 -9 3 C-4.5 0 -4.5 0 0 0 Z " fill="#37718B" transform="translate(334,721)"/>
<path d="M0 0 C2.49361571 1.20381448 4.68143083 2.45428722 7 4 C6.67 4.99 6.34 5.98 6 7 C3.95880212 5.38405168 1.95927063 3.7143618 0 2 C0 1.34 0 0.68 0 0 Z " fill="#40738A" transform="translate(135,604)"/>
<path d="M0 0 C1.16945792 0.80847729 2.33550461 1.62189112 3.5 2.4375 C4.47453125 3.11619141 4.47453125 3.11619141 5.46875 3.80859375 C5.9740625 4.20175781 6.479375 4.59492187 7 5 C7 5.33 7 5.66 7 6 C4.69 5.67 2.38 5.34 0 5 C-0.33 4.01 -0.66 3.02 -1 2 C-0.67 1.34 -0.34 0.68 0 0 Z " fill="#507B8B" transform="translate(322,555)"/>
<path d="M0 0 C1.9375 0.375 1.9375 0.375 4 1 C4.33 1.66 4.66 2.32 5 3 C4.34 3 3.68 3 3 3 C3.33 3.99 3.66 4.98 4 6 C2.68 5.67 1.36 5.34 0 5 C0 3.35 0 1.7 0 0 Z " fill="#377389" transform="translate(278,312)"/>
<path d="M0 0 C0.598125 0.20625 1.19625 0.4125 1.8125 0.625 C1.8125 1.285 1.8125 1.945 1.8125 2.625 C3.1325 2.955 4.4525 3.285 5.8125 3.625 C3.8125 4.625 3.8125 4.625 1.6484375 4.06640625 C0.83632813 3.77636719 0.02421875 3.48632812 -0.8125 3.1875 C-1.62976563 2.90003906 -2.44703125 2.61257813 -3.2890625 2.31640625 C-3.91554688 2.08824219 -4.54203125 1.86007812 -5.1875 1.625 C-2.1875 -0.375 -2.1875 -0.375 0 0 Z " fill="#548694" transform="translate(338.1875,302.375)"/>
<path d="M0 0 C2.3125 -0.25 2.3125 -0.25 5 0 C6.8125 2 6.8125 2 8 4 C7.01 4.33 6.02 4.66 5 5 C3.35 3.35 1.7 1.7 0 0 Z " fill="#27657A" transform="translate(401,206)"/>
<path d="M0 0 C0.99 0.33 1.98 0.66 3 1 C3.33 2.65 3.66 4.3 4 6 C5.32 6.33 6.64 6.66 8 7 C6.35 7 4.7 7 3 7 C3 6.01 3 5.02 3 4 C2.01 4 1.02 4 0 4 C0 2.68 0 1.36 0 0 Z " fill="#4A7888" transform="translate(371,108)"/>
<path d="M0 0 C0.99 0.33 1.98 0.66 3 1 C4.1875 3.5625 4.1875 3.5625 5 6 C4.01 6 3.02 6 2 6 C1.34 4.02 0.68 2.04 0 0 Z " fill="#417387" transform="translate(94,553)"/>
<path d="M0 0 C1.98 0.66 3.96 1.32 6 2 C5.34 2.66 4.68 3.32 4 4 C3.35232207 6.57061311 3.35232207 6.57061311 3 9 C2.67 9 2.34 9 2 9 C1.814375 7.576875 1.814375 7.576875 1.625 6.125 C1.28312823 2.91332809 1.28312823 2.91332809 -1 1 C-0.67 0.67 -0.34 0.34 0 0 Z " fill="#56879A" transform="translate(532,533)"/>
<path d="M0 0 C2.64752004 2.57784846 4.94432065 4.91648098 7 8 C6.01 8 5.02 8 4 8 C0 2.74285714 0 2.74285714 0 0 Z " fill="#4C7684" transform="translate(430,395)"/>
<path d="M0 0 C0.99 0 1.98 0 3 0 C2.34 3.63 1.68 7.26 1 11 C0.67 11 0.34 11 0 11 C0 7.37 0 3.74 0 0 Z " fill="#10495F" transform="translate(546,373)"/>
<path d="M0 0 C2.475 0.495 2.475 0.495 5 1 C5.33 2.65 5.66 4.3 6 6 C2.26360784 4.75453595 1.81243487 3.36595047 0 0 Z " fill="#0C485D" transform="translate(434,351)"/>
<path d="M0 0 C3.375 0.25 3.375 0.25 7 1 C8.4375 3.0625 8.4375 3.0625 9 5 C5.54074837 3.7508258 2.85306797 2.32472205 0 0 Z " fill="#377184" transform="translate(426,220)"/>
<path d="M0 0 C1.98 0.66 3.96 1.32 6 2 C6 2.66 6 3.32 6 4 C3.69 3.67 1.38 3.34 -1 3 C-0.67 2.01 -0.34 1.02 0 0 Z " fill="#0D485F" transform="translate(505,192)"/>
<path d="M0 0 C1.98 0 3.96 0 6 0 C4.68 1.32 3.36 2.64 2 4 C1.34 3.67 0.68 3.34 0 3 C0 2.01 0 1.02 0 0 Z " fill="#124B61" transform="translate(222,111)"/>
<path d="M0 0 C0.33 0.66 0.66 1.32 1 2 C0.34 2 -0.32 2 -1 2 C-1 2.99 -1 3.98 -1 5 C-2.65 5 -4.3 5 -6 5 C-6 4.34 -6 3.68 -6 3 C-5.34 3 -4.68 3 -4 3 C-4 2.34 -4 1.68 -4 1 C-2.68 0.67 -1.36 0.34 0 0 Z " fill="#084861" transform="translate(296,79)"/>
<path d="M0 0 C3.73487777 0.4979837 5.81237635 0.87491756 9 3 C9 3.66 9 4.32 9 5 C5.51694958 4.35499066 2.93797836 2.95865224 0 1 C0 0.67 0 0.34 0 0 Z " fill="#0D455C" transform="translate(270,583)"/>
<path d="M0 0 C0.99 0 1.98 0 3 0 C3.33 1.32 3.66 2.64 4 4 C2.02 4 0.04 4 -2 4 C-1.34 2.68 -0.68 1.36 0 0 Z " fill="#3B809A" transform="translate(368,556)"/>
<path d="M0 0 C1.9375 0.5625 1.9375 0.5625 4 2 C4.75 5.625 4.75 5.625 5 9 C3 6 3 6 3 3 C2.01 3 1.02 3 0 3 C0 2.01 0 1.02 0 0 Z " fill="#608793" transform="translate(210,525)"/>
<path d="M0 0 C1.98 0 3.96 0 6 0 C4.515 2.475 4.515 2.475 3 5 C2.01 4.67 1.02 4.34 0 4 C0 2.68 0 1.36 0 0 Z " fill="#588FA4" transform="translate(442,515)"/>
<path d="M0 0 C1.65 0 3.3 0 5 0 C3.35 1.65 1.7 3.3 0 5 C-0.33 4.34 -0.66 3.68 -1 3 C-0.67 2.01 -0.34 1.02 0 0 Z " fill="#0C4862" transform="translate(494,512)"/>
<path d="M0 0 C2.97 0 5.94 0 9 0 C9 0.66 9 1.32 9 2 C6.75 2.6875 6.75 2.6875 4 3 C1.6875 1.5625 1.6875 1.5625 0 0 Z " fill="#13495B" transform="translate(189,447)"/>
<path d="M0 0 C1.77706209 2.66559313 2.87548273 5.0280615 4 8 C3.01 8.495 3.01 8.495 2 9 C1.34 8.67 0.68 8.34 0 8 C0 5.36 0 2.72 0 0 Z " fill="#3D6D7C" transform="translate(445,413)"/>
<path d="M0 0 C2.62187494 1.04874998 3.79371361 1.64931313 5.25 4.125 C5.4975 4.74375 5.745 5.3625 6 6 C4.125 5.8125 4.125 5.8125 2 5 C0.75 2.4375 0.75 2.4375 0 0 Z " fill="#4F7A8B" transform="translate(409,376)"/>
<path d="M0 0 C0.33 0 0.66 0 1 0 C0.67 3.63 0.34 7.26 0 11 C-0.33 11 -0.66 11 -1 11 C-1.22174933 9.54364629 -1.42698698 8.08477044 -1.625 6.625 C-1.74101563 5.81289063 -1.85703125 5.00078125 -1.9765625 4.1640625 C-1.98429688 3.44992187 -1.99203125 2.73578125 -2 2 C-1.34 1.34 -0.68 0.68 0 0 Z " fill="#417886" transform="translate(514,354)"/>
<path d="M0 0 C0.33 0.99 0.66 1.98 1 3 C-1.64 3 -4.28 3 -7 3 C-4.49955934 -0.00052879 -4.2621484 0 0 0 Z " fill="#064D64" transform="translate(491,244)"/>
<path d="M0 0 C1.32 0.66 2.64 1.32 4 2 C3.34 2.66 2.68 3.32 2 4 C-0.625 3.625 -0.625 3.625 -3 3 C-2.01 2.01 -1.02 1.02 0 0 Z " fill="#125875" transform="translate(227,225)"/>
<path d="M0 0 C0 0.66 0 1.32 0 2 C-0.99 2.495 -0.99 2.495 -2 3 C-2.99 4.485 -2.99 4.485 -4 6 C-4.66 4.35 -5.32 2.7 -6 1 C-4 0 -4 0 0 0 Z " fill="#42788C" transform="translate(240,212)"/>
<path d="M0 0 C0.598125 0.350625 1.19625 0.70125 1.8125 1.0625 C0.1625 2.3825 -1.4875 3.7025 -3.1875 5.0625 C-3.8475 3.4125 -4.5075 1.7625 -5.1875 0.0625 C-2.1875 -0.9375 -2.1875 -0.9375 0 0 Z " fill="#175974" transform="translate(532.1875,200.9375)"/>
<path d="M0 0 C1.65 0 3.3 0 5 0 C5.33 1.65 5.66 3.3 6 5 C5.01 5.495 5.01 5.495 4 6 C4 5.01 4 4.02 4 3 C2.68 2.34 1.36 1.68 0 1 C0 0.67 0 0.34 0 0 Z " fill="#124A61" transform="translate(391,127)"/>
<path d="M0 0 C2 2 2 2 2 5 C2.99 5.33 3.98 5.66 5 6 C3.35 6.33 1.7 6.66 0 7 C-1.33332095 4.3333581 -0.67102033 2.83319697 0 0 Z " fill="#558495" transform="translate(361,97)"/>
</svg>
